<svg width="18" height="20" viewBox="0 0 18 20" fill="none" xmlns="http://www.w3.org/2000/svg">
<path d="M8.66025 0L0 5V15L8.66025 20L17.3205 15V5L8.66025 0Z" fill="black"/>
<path d="M6.92822 12.9998V10.9998L8.66028 9.99982L10.3923 8.99983V4.99987L12.1244 3.99988V13.9998L6.92822 16.9998V12.9998Z" fill="#F3F3F7"/>
<path d="M5.19617 10L8.66024 8L10.3923 9.00001L6.9282 11L5.19617 10Z" fill="#F9F9FD"/>
<path d="M8.66028 3.99996L10.3923 3L12.1244 3.99996L10.3923 4.99992L8.66028 3.99996Z" fill="#F9F9FD"/>
<path d="M10.3922 12.9998L8.66016 11.9998V13.9999L10.3922 12.9998Z" fill="black"/>
<path d="M6.92822 16.9997L5.19617 15.9997V9.99988L6.92822 10.9999V16.9997Z" fill="#D5D5D9"/>
<path d="M8.66028 8.00004V3.99988L10.3923 4.99992V9.00008L8.66028 8.00004Z" fill="#D5D5D9"/>
<path d="M8.66016 12L10.3922 11V12.9999L8.66016 12Z" fill="black"/>
<path d="M10.3923 9.00009L8.66028 8L6.92822 9.00009H10.3923Z" fill="#F3F3F7"/>
</svg>
