<svg width="29" height="20" viewBox="0 0 29 20" fill="none" xmlns="http://www.w3.org/2000/svg">
<g clip-path="url(#clip0)">
<path d="M27.9765 3.12941C27.6471 1.90588 26.6824 0.941177 25.4588 0.611765C23.2235 0 14.2824 0 14.2824 0C14.2824 0 5.34118 0 3.10588 0.588235C1.90588 0.917647 0.917647 1.90588 0.588235 3.12941C0 5.36471 0 10 0 10C0 10 0 14.6588 0.588235 16.8706C0.917647 18.0941 1.88235 19.0588 3.10588 19.3882C5.36471 20 14.2824 20 14.2824 20C14.2824 20 23.2235 20 25.4588 19.4118C26.6824 19.0824 27.6471 18.1176 27.9765 16.8941C28.5647 14.6588 28.5647 10.0235 28.5647 10.0235C28.5647 10.0235 28.5882 5.36471 27.9765 3.12941Z" fill="#282828"/>
<path d="M18.8706 10L11.4353 5.71765V14.2824L18.8706 10Z" fill="white"/>
</g>
<defs>
<clipPath id="clip0">
<rect width="28.5648" height="20" fill="white"/>
</clipPath>
</defs>
</svg>
