<svg width="410" height="366" viewBox="0 0 410 366" fill="none" xmlns="http://www.w3.org/2000/svg">
<path d="M252.505 2.32663C287.765 3.86158 326.601 -8.32703 356.198 11.436C386.205 31.4732 400.997 69.9316 407.827 106.042C414.379 140.688 405.093 175.836 393.579 209.087C382.897 239.937 363.819 265.507 343.791 290.971C322.27 318.334 304.886 354.429 271.895 363.803C238.922 373.172 206.386 350.222 173.885 339.248C143.908 329.127 109.743 325.567 88.2679 301.803C67.0776 278.354 72.5772 241.169 59.1537 212.29C42.4808 176.42 -1.81033 151.738 0.0573011 112.029C1.87247 73.4365 36.3053 42.6944 68.0994 22.0923C97.2222 3.22116 133.705 6.91084 167.945 3.24087C196.467 0.183682 223.853 1.07939 252.505 2.32663Z" fill="#6FA5CF"/>
<g clip-path="url(#clip0)">
<path opacity="0.2" d="M305.263 128.052H292.623V133.781H305.263V128.052Z" fill="#BDBDBD"/>
<path opacity="0.2" d="M306.235 135.055H293.595V140.784H306.235V135.055Z" fill="#BDBDBD"/>
<path opacity="0.2" d="M295.783 86.4612H283.143V92.1906H295.783V86.4612Z" fill="#BDBDBD"/>
<path opacity="0.2" d="M304.777 93.0394H292.137V98.7688H304.777V93.0394Z" fill="#BDBDBD"/>
<path opacity="0.2" d="M280.469 86.8857H267.829V92.615H280.469V86.8857Z" fill="#BDBDBD"/>
<path opacity="0.2" d="M321.063 99.6175H308.423V105.347H321.063V99.6175Z" fill="#BDBDBD"/>
<path opacity="0.2" d="M305.749 100.042H293.109V105.771H305.749V100.042Z" fill="#BDBDBD"/>
<path opacity="0.2" d="M289.463 93.4638H276.823V99.1931H289.463V93.4638Z" fill="#BDBDBD"/>
<path opacity="0.2" d="M320.334 143.755H307.694V149.484H320.334V143.755Z" fill="#BDBDBD"/>
<path opacity="0.2" d="M305.02 144.179H292.38V149.909H305.02V144.179Z" fill="#BDBDBD"/>
<path d="M138.783 126.567C138.783 126.567 156.598 142.119 146.542 165.187C136.486 188.255 163.779 226.648 163.779 226.648C163.779 226.648 163.487 226.61 162.945 226.527C126.356 220.889 108.177 184.359 128.532 157.229C136.087 147.131 142.295 135.297 138.783 126.567Z" fill="#BDBDBD"/>
<path d="M138.783 126.567C138.783 126.567 148.839 145.631 138.783 161.18C128.726 176.73 137.059 220.384 163.781 226.648" stroke="#535461" stroke-width="2" stroke-miterlimit="10"/>
<path d="M107.051 189.467C107.051 189.467 127.38 186.64 129.232 202.544C131.084 218.449 168.324 220.653 168.324 220.653C168.324 220.653 168.081 220.798 167.626 221.059C136.879 238.671 107.489 232.282 111.92 208.887C113.566 200.189 113.429 191.453 107.051 189.467Z" fill="#BDBDBD"/>
<path opacity="0.2" d="M107.051 189.467C107.051 189.467 127.38 186.64 129.232 202.544C131.084 218.449 168.324 220.653 168.324 220.653C168.324 220.653 168.081 220.798 167.626 221.059C136.879 238.671 107.489 232.282 111.92 208.887C113.566 200.189 113.429 191.453 107.051 189.467Z" fill="#F5F5F5"/>
<path d="M107.051 189.466C107.051 189.466 122.829 192.49 121.534 205.014C120.238 217.538 144.967 232.56 168.324 220.653" stroke="#535461" stroke-width="2" stroke-miterlimit="10"/>
<path opacity="0.2" d="M119.794 128.264H107.154V133.994H119.794V128.264Z" fill="#BDBDBD"/>
<path opacity="0.2" d="M128.787 134.842H116.147V140.572H128.787V134.842Z" fill="#BDBDBD"/>
<path opacity="0.2" d="M197.093 68H184.452V73.7294H197.093V68Z" fill="#BDBDBD"/>
<path opacity="0.2" d="M296.755 173.675H284.115V179.404H296.755V173.675Z" fill="#BDBDBD"/>
<path opacity="0.2" d="M129.76 141.845H117.119V147.574H129.76V141.845Z" fill="#BDBDBD"/>
<path opacity="0.2" d="M206.087 74.5782H193.446V80.3075H206.087V74.5782Z" fill="#BDBDBD"/>
<path opacity="0.2" d="M159.901 113.41H147.261V119.14H159.901V113.41Z" fill="#BDBDBD"/>
<path opacity="0.2" d="M168.895 119.989H156.255V125.718H168.895V119.989Z" fill="#BDBDBD"/>
<path opacity="0.2" d="M192.96 116.381H180.32V122.111H192.96V116.381Z" fill="#BDBDBD"/>
<path opacity="0.2" d="M169.868 126.991H157.228V132.72H169.868V126.991Z" fill="#BDBDBD"/>
<path opacity="0.2" d="M313.771 173.675H301.13V179.404H313.771V173.675Z" fill="#BDBDBD"/>
<path d="M282.175 150.993C281.357 147.017 280.855 142.996 280.673 138.959C280.511 135.635 279.176 132.435 276.849 129.799C274.523 127.164 271.319 125.221 267.678 124.237C266.351 123.88 264.89 123.547 263.276 123.248C249.129 120.625 244.831 122.915 244.342 123.216C243.929 122.559 243.569 121.878 243.265 121.177C243.241 121.105 243.219 121.033 243.195 120.965C245.995 118.358 247.701 115 248.035 111.439C250.395 109.351 251.773 106.83 251.773 104.116C251.773 101.782 250.752 99.5921 248.966 97.6971V94.0091C248.966 89.7562 247.03 85.6774 243.585 82.6701C240.14 79.6628 235.468 77.9733 230.596 77.9733H229.106C226.694 77.9733 224.305 78.3881 222.076 79.194C219.848 79.9998 217.823 81.181 216.117 82.6701C214.411 84.1592 213.058 85.9269 212.135 87.8725C211.212 89.818 210.737 91.9033 210.737 94.0091V97.9836C209.115 99.8106 208.196 101.897 208.196 104.112C208.196 106.769 209.519 109.239 211.789 111.301C212.099 114.993 213.883 118.473 216.831 121.134C216.93 121.737 217.032 122.384 217.132 123.068L191.827 127.734C191.827 127.734 182.07 128.084 175.784 139.405C170.468 148.994 159.889 173.63 156.756 180.964C156.19 182.292 155.869 183.054 155.869 183.054C155.869 183.054 155.973 182.963 156.17 182.806L155.869 183.521C155.869 183.521 156.022 183.385 156.313 183.162C155.871 186.23 155.808 191.499 160.412 192.155C164.272 192.705 174.219 192.932 181.732 193.023H182.253C187.233 193.08 191.023 193.08 191.023 193.08V193.023H271.832V192.299C271.833 191.643 271.682 190.993 271.387 190.39L271.499 190.271C271.932 190.769 272.219 191.352 272.338 191.968C272.328 192.028 272.315 192.088 272.299 192.147L272.347 192.038C272.366 192.231 272.35 192.425 272.299 192.613C272.299 192.613 282.666 169.295 282.554 155.37C282.584 153.904 282.457 152.439 282.175 150.993ZM217.552 126.219C217.419 125.553 217.333 124.882 217.295 124.207C217.295 124.207 217.295 124.194 217.295 124.188C217.385 124.844 217.472 125.523 217.552 126.219ZM186.142 176.306V181.863L182.155 182.608L186.142 176.306Z" fill="url(#paint0_linear)"/>
<path d="M229.442 80.2162C234.313 80.2162 238.986 81.9057 242.431 84.913C245.876 87.9203 247.811 91.9991 247.811 96.2521V103.093H211.072V96.2521C211.072 91.9991 213.007 87.9203 216.452 84.913C219.897 81.9057 224.57 80.2162 229.442 80.2162Z" fill="#E14B5A"/>
<path d="M229.57 117.896C241.135 117.896 250.509 112.273 250.509 105.336C250.509 98.3996 241.135 92.7763 229.57 92.7763C218.006 92.7763 208.632 98.3996 208.632 105.336C208.632 112.273 218.006 117.896 229.57 117.896Z" fill="#E14B5A"/>
<path d="M216.147 117.504C216.147 117.504 220.523 137.465 216.147 142.849C211.772 148.232 229.517 150.363 229.517 150.363L247.884 144.531L250.453 130.176C250.453 130.176 239.272 124.68 241.588 113.578L216.147 117.504Z" fill="#F7C4A7"/>
<path d="M270.359 184.792C270.359 184.792 271.516 189.165 265.22 189.95C261.503 190.428 257.722 190.388 254.019 189.834L252.631 178.848H267.277L270.359 184.792Z" fill="#F7C4A7"/>
<path d="M159.189 179.194C159.189 179.194 156.408 189.059 162.704 189.95C169 190.842 192.117 190.848 192.117 190.848V179.177L181.65 181.129L171.824 172.904L159.189 179.194Z" fill="#F7C4A7"/>
<path opacity="0.1" d="M217.499 123.952L192.897 128.493C192.897 128.493 183.519 128.831 177.481 139.708C171.443 150.585 158.338 181.651 158.338 181.651C158.338 181.651 169.52 171.782 182.62 182.324L191.356 168.531L189.428 190.4H257.121V180.081C257.121 180.081 271.251 186.697 270.225 190.398C270.225 190.398 282.319 163.198 279.706 150.838C278.919 147.017 278.436 143.153 278.262 139.273C278.107 136.078 276.824 133.003 274.588 130.47C272.352 127.937 269.272 126.07 265.772 125.126C264.498 124.784 263.098 124.464 261.543 124.177C247.026 121.487 243.312 124.177 243.312 124.177C243.312 124.177 240.499 132.165 240.55 135.785C240.613 140.438 232.971 143.523 232.971 143.523C232.971 143.523 221.665 141.168 221.153 139.263C220.64 137.357 216.595 126.195 217.499 123.952Z" fill="black"/>
<path d="M217.499 123.505L192.897 128.046C192.897 128.046 183.519 128.383 177.481 139.26C171.443 150.138 158.336 181.208 158.336 181.208C158.336 181.208 169.518 171.338 182.617 181.88L191.354 168.088L189.426 189.95H257.121V179.633C257.121 179.633 271.251 186.25 270.226 189.95C270.226 189.95 282.319 162.751 279.706 150.39C278.919 146.569 278.437 142.705 278.262 138.825C278.107 135.63 276.824 132.555 274.588 130.022C272.352 127.489 269.272 125.622 265.772 124.678C264.499 124.337 263.098 124.016 261.543 123.73C247.026 121.039 243.312 123.73 243.312 123.73C243.312 123.73 240.499 131.717 240.55 135.337C240.614 139.99 232.971 143.076 232.971 143.076C232.971 143.076 221.666 140.72 221.153 138.815C220.64 136.909 216.595 125.748 217.499 123.505Z" fill="#575988"/>
<path opacity="0.1" d="M242.638 122.552C241.605 119.998 241.373 117.249 241.967 114.59L216.527 118.514C216.527 118.514 216.894 120.192 217.309 122.707C218.953 124.196 220.927 125.377 223.11 126.18C225.293 126.982 227.641 127.388 230.01 127.374C232.378 127.359 234.719 126.924 236.889 126.095C239.059 125.266 241.014 124.061 242.633 122.552H242.638Z" fill="black"/>
<path d="M246.977 111.112C246.957 115.114 245.137 118.949 241.908 121.789C238.679 124.63 234.3 126.249 229.716 126.298C225.132 126.346 220.71 124.82 217.404 122.048C214.097 119.277 212.17 115.482 212.039 111.482C212.039 111.358 212.039 111.235 212.039 111.112C212.039 108.257 212.956 105.458 214.688 103.035C216.419 100.612 218.895 98.6617 221.833 97.4064C222.357 97.1829 222.895 96.982 223.447 96.8038C226.321 95.8815 229.421 95.6298 232.441 96.0738C236.311 96.6491 239.846 98.3462 242.475 100.891C245.104 103.436 246.674 106.68 246.931 110.1C246.962 110.435 246.977 110.773 246.977 111.112Z" fill="#F7C4A7"/>
<g opacity="0.1">
<path opacity="0.1" d="M223.421 97.1624L223.445 97.1497C222.892 97.3279 222.354 97.5288 221.831 97.7523C218.892 99.0076 216.417 100.958 214.685 103.381C212.954 105.804 212.036 108.602 212.037 111.458C212.037 111.581 212.037 111.704 212.037 111.827C212.58 111.815 213.114 111.703 213.605 111.499C217.864 109.763 220.411 104.454 221.422 100.751C221.787 99.4244 222.13 97.9306 223.421 97.1624Z" fill="black"/>
<path opacity="0.1" d="M236.792 97.5889C235.409 97.0344 233.949 96.6412 232.449 96.4197C233.679 96.6669 234.778 97.2695 235.567 98.13C235.954 98.5892 236.275 99.0881 236.523 99.6154C234.197 98.7279 231.679 98.292 229.142 98.3378C226.605 98.3836 224.109 98.91 221.828 99.8807C222.925 101.979 226.325 103.123 228.596 103.889C231.082 104.727 233.593 105.493 236.131 106.187L233.885 104.596L238.958 105.3C239.013 104.419 238.893 103.536 238.603 102.69C239.576 103.373 240.864 103.603 241.919 104.176C243.895 105.264 244.719 107.359 245.796 109.173C246.08 109.652 246.416 110.143 246.929 110.446C246.721 107.705 245.67 105.063 243.886 102.801C242.102 100.538 239.651 98.737 236.792 97.5889Z" fill="black"/>
</g>
<path d="M223.421 96.8165L223.445 96.8038C222.892 96.982 222.354 97.1829 221.831 97.4064C218.892 98.6617 216.417 100.612 214.685 103.035C212.954 105.458 212.036 108.257 212.037 111.112C212.037 111.235 212.037 111.358 212.037 111.482C212.58 111.469 213.114 111.357 213.605 111.153C217.864 109.417 220.411 104.108 221.422 100.405C221.787 99.087 222.13 97.5868 223.421 96.8165Z" fill="#632652"/>
<path d="M236.792 97.2452C235.409 96.6906 233.949 96.2975 232.448 96.0759C233.679 96.3231 234.778 96.9258 235.567 97.7863C235.954 98.2454 236.275 98.7443 236.523 99.2716C234.197 98.3842 231.679 97.9483 229.142 97.9941C226.605 98.0399 224.109 98.5663 221.828 99.5369C222.925 101.636 226.325 102.779 228.596 103.545C231.082 104.383 233.593 105.149 236.131 105.843L233.885 104.252L238.958 104.956C239.013 104.075 238.893 103.192 238.603 102.346C239.576 103.03 240.864 103.259 241.919 103.832C243.895 104.92 244.719 107.015 245.796 108.829C246.08 109.309 246.416 109.799 246.929 110.102C246.721 107.361 245.67 104.72 243.886 102.457C242.102 100.194 239.651 98.3933 236.792 97.2452Z" fill="#632652"/>
<path opacity="0.1" d="M210.044 108.598C210.044 108.598 228.032 89.0755 248.842 108.598L247.043 104.224C247.043 104.224 237.278 91.7768 230.343 94.4632C223.408 97.1497 216.597 99.0616 216.597 99.0616L210.044 108.598Z" fill="black"/>
<path d="M210.044 108.252C210.044 108.252 228.032 88.7296 248.842 108.252L247.043 103.878C247.043 103.878 237.278 91.4309 230.343 94.1174C223.408 96.8038 216.597 98.7157 216.597 98.7157L210.044 108.252Z" fill="#E14B5A"/>
<path opacity="0.1" d="M195.27 150.307C195.27 150.307 191.417 159.279 196.811 167.353C202.205 175.427 192.058 178.793 192.058 178.793" fill="black"/>
<path opacity="0.1" d="M257.704 142.233C257.704 142.233 264.384 149.635 260.016 156.251C255.648 162.867 255.906 178.793 255.906 178.793" fill="black"/>
<path d="M189.36 185.409H263.614C265.249 185.409 266.818 185.976 267.974 186.986C269.131 187.996 269.781 189.365 269.781 190.793H183.196C183.196 189.365 183.845 187.996 185.001 186.987C186.157 185.977 187.725 185.41 189.36 185.409Z" fill="#535461"/>
<path d="M196.915 148.4H256.061C257.306 148.4 258.539 148.614 259.689 149.03C260.839 149.446 261.884 150.055 262.765 150.824C263.645 151.592 264.343 152.504 264.82 153.509C265.296 154.513 265.541 155.589 265.541 156.676V186.642H187.435V156.676C187.435 154.481 188.434 152.376 190.212 150.824C191.989 149.272 194.401 148.4 196.915 148.4Z" fill="#535461"/>
<path d="M226.423 173.242C228.977 173.242 231.048 171.434 231.048 169.204C231.048 166.973 228.977 165.166 226.423 165.166C223.868 165.166 221.797 166.973 221.797 169.204C221.797 171.434 223.868 173.242 226.423 173.242Z" fill="white"/>
<path opacity="0.1" d="M211.072 99.4478C211.072 99.4478 228.749 84.0252 247.813 99.1655" stroke="black" stroke-miterlimit="10"/>
<path d="M252.279 98.4653H250.504V107.248H252.279V98.4653Z" fill="#6A5C99"/>
<path d="M248.137 104.148C249.759 104.148 251.314 104.71 252.461 105.712C253.608 106.713 254.253 108.071 254.253 109.487V109.831C254.253 111.247 253.608 112.605 252.461 113.606C251.314 114.607 249.759 115.17 248.137 115.17V104.148Z" fill="#FFD037"/>
<path d="M249.714 104.838C249.714 104.172 249.096 103.632 248.334 103.632C247.571 103.632 246.953 104.172 246.953 104.838V114.482C246.953 115.148 247.571 115.687 248.334 115.687C249.096 115.687 249.714 115.148 249.714 114.482V104.838Z" fill="#6A5C99"/>
<path d="M206.424 107.42H208.199V98.6372H206.424V107.42Z" fill="#6A5C99"/>
<path d="M210.566 115.341C208.944 115.341 207.389 114.779 206.242 113.778C205.095 112.776 204.451 111.418 204.451 110.003V109.659C204.451 108.958 204.609 108.263 204.916 107.616C205.223 106.968 205.674 106.379 206.242 105.884C206.81 105.388 207.484 104.995 208.226 104.726C208.968 104.458 209.763 104.32 210.566 104.32V115.341Z" fill="#FFD037"/>
<path d="M208.989 114.652C208.989 115.317 209.607 115.857 210.37 115.857C211.132 115.857 211.75 115.317 211.75 114.652V105.007C211.75 104.342 211.132 103.802 210.37 103.802C209.607 103.802 208.989 104.342 208.989 105.007V114.652Z" fill="#6A5C99"/>
<path d="M250.295 89.0776C247.891 84.7148 242.655 79.4396 231.369 79.0173V79.0046H231.233L227.234 79.1701V79.1871C216.024 79.6369 210.812 84.8931 208.415 89.241C206.819 92.1886 205.971 95.4025 205.931 98.6626L207.312 98.6329L208.692 98.6053C208.752 95.7029 209.517 92.8445 210.936 90.2193C213.979 84.7615 219.58 81.8608 227.58 81.5913L231.116 81.4194C239.121 81.6868 244.724 84.5918 247.765 90.0474C249.187 92.6736 249.953 95.5335 250.013 98.4377L251.394 98.4653L252.775 98.495C252.735 95.2366 251.889 92.0242 250.295 89.0776Z" fill="#FFD037"/>
<path d="M313.372 190.863H125.056V235H313.372V190.863Z" fill="#D6D6E3"/>
<path opacity="0.1" d="M313.372 193.834H125.056V199.563H313.372V193.834Z" fill="black"/>
<path d="M326 190.226H112.423V195.956H326V190.226Z" fill="#D6D6E3"/>
</g>
<defs>
<linearGradient id="paint0_linear" x1="219.213" y1="193.091" x2="219.213" y2="77.9733" gradientUnits="userSpaceOnUse">
<stop stop-color="#808080" stop-opacity="0.25"/>
<stop offset="0.54" stop-color="#808080" stop-opacity="0.12"/>
<stop offset="1" stop-color="#808080" stop-opacity="0.1"/>
</linearGradient>
<clipPath id="clip0">
<rect width="219" height="167" fill="white" transform="translate(107 68)"/>
</clipPath>
</defs>
</svg>
