<svg width="404" height="308" viewBox="0 0 404 308" fill="none" xmlns="http://www.w3.org/2000/svg">
<path d="M261.528 0.93959C296.854 5.9146 324.931 26.5021 349.521 46.9551C373.575 66.9628 393.732 90.2957 401.217 117.129C408.53 143.349 400.129 169.986 391.056 195.867C382.046 221.567 373.423 248.818 348.64 267.103C324.1 285.209 288.625 288.726 256.02 295.497C223.573 302.236 191.072 311.455 158.06 306.681C123.929 301.745 92.1056 288.025 68.2075 268.335C44.624 248.904 35.8402 222.346 24.8911 196.959C13.3191 170.127 -6.70418 142.799 2.231 115.358C11.1767 87.8846 43.3068 69.3228 72.0684 52.0716C98.2793 36.3504 129.403 28.7792 160.627 20.3526C193.936 11.3628 226.849 -3.94435 261.528 0.93959Z" fill="#6FA5CF"/>
<g clip-path="url(#clip0)">
<path d="M166.872 100.941C164.545 103.358 161.742 105.266 158.641 106.545C155.539 107.825 152.206 108.447 148.852 108.374C145.498 108.301 142.196 107.533 139.153 106.12C136.11 104.706 133.394 102.678 131.174 100.162L77 151.441L153.18 231.922L225.793 163.19L166.872 100.941Z" fill="#F2F2F2"/>
<path d="M149.338 103.31C152.197 103.314 155.027 102.739 157.658 101.62C160.288 100.501 162.666 98.861 164.646 96.7992L149.54 80.8398L133.4 96.117C135.392 98.3803 137.845 100.193 140.593 101.433C143.341 102.673 146.322 103.313 149.338 103.31Z" fill="#F2F2F2"/>
<path d="M268.256 126.65C268.262 131.663 267.278 136.627 265.362 141.26C263.446 145.892 260.635 150.1 257.091 153.645C253.546 157.189 249.338 160 244.706 161.916C240.074 163.832 235.109 164.815 230.096 164.81C229.879 164.81 229.662 164.808 229.444 164.803C228.528 164.79 227.624 164.743 226.724 164.665C219.349 164.011 212.324 161.226 206.504 156.649C200.684 152.072 196.321 145.901 193.948 138.888C191.574 131.874 191.291 124.322 193.134 117.151C194.978 109.981 198.867 103.501 204.329 98.5018C209.79 93.5028 216.588 90.2005 223.894 88.9974C231.199 87.7943 238.697 88.7424 245.473 91.7261C252.249 94.7097 258.011 99.6002 262.057 105.801C266.102 112.002 268.256 119.246 268.256 126.65Z" fill="#B8B8B8"/>
<path opacity="0.1" d="M252.211 112.841C254.603 108.622 256.165 103.984 256.811 99.1778C251.735 94.2848 245.403 90.8934 238.518 89.3799C231.632 87.8665 224.462 88.2901 217.802 90.6037C211.143 92.9174 205.254 97.0307 200.79 102.487C196.326 107.944 193.461 114.53 192.513 121.516C198.78 127.575 206.939 131.296 215.624 132.055C216.523 132.134 217.427 132.18 218.343 132.194C218.561 132.199 218.778 132.201 218.996 132.201C225.751 132.208 232.387 130.419 238.224 127.017C244.061 123.615 248.888 118.723 252.211 112.841Z" fill="black"/>
<path d="M246.979 163.885H185.692V232.342H246.979V163.885Z" fill="#2F2E41"/>
<path opacity="0.1" d="M266.607 140.897C264.235 146.465 260.574 151.391 255.926 155.267C251.277 159.143 245.774 161.859 239.87 163.192H248.367V231.649H191.839L223.563 176.7L230.832 164.11L231.361 163.192L255.421 121.521L266.607 140.897Z" fill="black"/>
<path d="M263.284 121.983L295.142 177.163L327 232.342H263.284H199.568L231.426 177.163L263.284 121.983Z" fill="#3F3D56"/>
<path d="M327 231.88H85.5507V232.342H327V231.88Z" fill="#2F2E41"/>
<path d="M116.664 221.41L116.242 224.928L113.85 226.054L111.177 225.209L109.348 226.054L108.785 222.817L112.021 219.159L116.664 221.41Z" fill="#9F616A"/>
<path d="M114.976 224.084C114.976 224.084 117.157 221.54 117.192 222.812C117.227 224.084 122.011 228.446 122.011 228.446C122.011 228.446 129.469 230.697 123.7 232.104C117.931 233.511 105.267 229.431 104.845 228.586C104.423 227.742 108.363 221.27 108.785 221.832C109.207 222.395 111.318 224.365 114.976 224.084Z" fill="#2F2E41"/>
<path d="M120.323 182.294C120.323 182.294 121.167 188.907 120.323 189.892C119.479 190.877 119.901 192.847 120.323 193.128C120.745 193.41 119.76 194.535 119.057 195.098C118.353 195.661 117.368 198.194 117.368 198.194C117.368 198.194 113.569 208.184 113.569 209.169C113.569 210.154 111.881 212.264 112.021 212.968C112.162 213.671 111.037 215.923 111.177 216.345C111.318 216.767 109.348 220.566 109.911 221.129C110.474 221.692 118.212 223.661 117.79 222.395C117.368 221.129 117.087 219.581 117.368 219.581C117.65 219.581 118.916 218.033 118.635 217.47C118.353 216.908 127.077 202.133 127.077 202.133L120.323 182.294Z" fill="#2F2E41"/>
<path opacity="0.1" d="M114.976 224.084C114.976 224.084 117.157 221.54 117.192 222.812C117.227 224.084 122.011 228.446 122.011 228.446C122.011 228.446 129.469 230.697 123.7 232.104C117.931 233.511 105.267 229.431 104.845 228.586C104.423 227.742 108.363 221.27 108.785 221.832C109.207 222.395 111.318 224.365 114.976 224.084Z" fill="black"/>
<path opacity="0.1" d="M120.323 182.294C120.323 182.294 121.167 188.907 120.323 189.892C119.479 190.877 119.901 192.847 120.323 193.128C120.745 193.41 119.76 194.535 119.057 195.098C118.353 195.661 117.368 198.194 117.368 198.194C117.368 198.194 113.569 208.184 113.569 209.169C113.569 210.154 111.881 212.264 112.021 212.968C112.162 213.671 111.037 215.923 111.177 216.345C111.318 216.767 109.348 220.566 109.911 221.129C110.474 221.692 118.212 223.661 117.79 222.395C117.368 221.129 117.087 219.581 117.368 219.581C117.65 219.581 118.916 218.033 118.635 217.47C118.353 216.908 127.077 202.133 127.077 202.133L120.323 182.294Z" fill="black"/>
<path d="M134.675 219.663L136.223 223.603L135.519 229.09L131.016 228.809L128.484 226.558V221.774L134.675 219.663Z" fill="#9F616A"/>
<path d="M133.831 224.448C133.831 224.448 135.379 219.382 136.223 220.789C136.758 221.693 137.228 222.633 137.63 223.603C137.63 223.603 144.524 228.106 146.354 228.106C148.183 228.106 149.871 230.357 147.479 231.201C145.087 232.046 126.796 233.171 126.514 231.201C126.233 229.231 126.796 222.9 127.64 223.603C128.484 224.307 132.846 225.855 133.831 224.448Z" fill="#2F2E41"/>
<path d="M137.348 162.115C137.348 162.115 143.55 166.329 143.832 166.892C144.113 167.455 147.711 169.185 144.757 170.592C141.802 171.999 133.971 163.099 133.971 163.099L137.348 162.115Z" fill="#9F616A"/>
<path d="M134.253 153.954C134.253 153.954 138.755 162.677 137.911 162.959C137.067 163.24 133.69 164.929 133.69 164.929L132.142 156.064L134.253 153.954Z" fill="#575A88"/>
<path opacity="0.1" d="M134.253 153.954C134.253 153.954 138.755 162.677 137.911 162.959C137.067 163.24 133.69 164.929 133.69 164.929L132.142 156.064L134.253 153.954Z" fill="black"/>
<path d="M133.971 161.27C133.971 161.27 134.956 168.587 134.534 170.135C134.112 171.683 134.816 194.899 134.253 196.165C133.69 197.432 133.268 205.593 133.268 206.578C133.268 207.563 134.394 215.583 134.675 216.286C134.956 216.99 135.801 219.382 135.379 220.508C134.956 221.633 129.187 224.447 128.343 223.462C127.499 222.477 128.203 219.382 127.499 219.241C126.795 219.101 125.951 212.487 125.951 212.487L121.308 186.597C121.308 186.597 112.584 164.929 114.554 162.818C116.524 160.708 133.971 161.27 133.971 161.27Z" fill="#2F2E41"/>
<path d="M128.765 111.32C132.573 111.32 135.66 108.233 135.66 104.425C135.66 100.617 132.573 97.5305 128.765 97.5305C124.957 97.5305 121.871 100.617 121.871 104.425C121.871 108.233 124.957 111.32 128.765 111.32Z" fill="#9F616A"/>
<path d="M131.298 110.053C131.298 110.053 129.047 115.963 129.328 117.229C129.609 118.496 122.715 114.978 122.715 114.978C122.715 114.978 123.137 108.084 122.715 106.254C122.293 104.425 131.298 110.053 131.298 110.053Z" fill="#9F616A"/>
<path d="M112.393 148.552C112.424 149.732 112.443 150.436 112.443 150.436C112.443 150.436 112.021 156.908 112.725 159.019C113.428 161.13 113.428 162.677 113.85 164.084C113.974 164.494 115.658 164.713 118.024 164.81C120.193 164.899 122.936 164.886 125.568 164.826C129.927 164.725 133.991 164.491 134.675 164.366C136.223 164.084 134.393 161.692 134.956 160.426C135.519 159.16 133.971 142.979 133.971 142.979C133.971 142.979 134.112 133.833 133.408 130.315C132.705 126.797 130.032 121.169 129.469 120.466C128.906 119.762 129.328 119.34 130.594 118.496C131.861 117.651 130.594 114.415 130.594 114.415C128.202 112.445 122.152 112.164 122.152 112.164C122.152 112.164 112.865 121.732 112.303 123.702C111.962 124.892 112.085 134.401 112.234 141.743C112.291 144.505 112.352 146.962 112.393 148.552Z" fill="#575A88"/>
<path d="M124.262 166.054C124.262 166.054 129.609 177.029 125.388 177.733C121.167 178.437 119.056 167.743 119.056 167.743L124.262 166.054Z" fill="#9F616A"/>
<path d="M135.212 100.931C135.456 99.748 134.552 98.6426 133.6 97.8998C131.527 96.2922 128.977 95.4225 126.354 95.4287C124.509 95.4388 122.604 95.9269 121.21 97.1351C119.583 98.5444 118.841 100.804 118.977 102.952C119.114 105.1 120.048 107.138 121.308 108.882C121.913 109.72 122.884 110.587 123.85 110.222C124.229 110.045 124.553 109.771 124.791 109.428C125.411 108.658 125.951 107.828 126.403 106.95C126.749 106.278 127.048 105.57 127.539 104.994C128.029 104.419 128.765 103.986 129.514 104.09C130.133 104.175 130.739 104.61 131.329 104.406C131.985 104.178 132.144 103.339 132.196 102.646C132.254 101.887 132.213 101.008 132.424 100.29C132.654 100.413 135.098 101.497 135.212 100.931Z" fill="#2F2E41"/>
<path opacity="0.1" d="M112.393 148.552C113.969 154.235 117.583 163.813 117.79 164.225C117.842 164.331 117.924 164.538 118.024 164.811C120.193 164.899 122.936 164.887 125.568 164.826C125.16 163.76 124.685 162.73 124.685 162.396C124.685 161.693 121.308 143.542 121.308 143.542C121.308 143.542 123.981 135.521 126.373 128.767C128.765 122.014 119.268 123.35 119.268 123.35C114.202 122.084 113.288 124.265 113.288 124.265C113.288 124.265 112.842 136.126 112.234 141.743C112.078 143.183 111.912 144.211 111.74 144.527C111.515 144.939 111.819 146.489 112.393 148.552Z" fill="black"/>
<path d="M121.308 118.777C121.308 118.777 127.78 121.451 125.388 128.205C122.996 134.959 120.323 142.979 120.323 142.979C120.323 142.979 123.7 161.13 123.7 161.833C123.7 162.537 125.81 166.336 124.966 167.04C124.122 167.743 118.494 169.15 118.353 168.447C118.212 167.743 117.087 164.225 116.805 163.663C116.524 163.1 109.911 145.512 110.755 143.964C111.376 142.825 111.921 132.39 112.166 126.957C112.222 125.407 112.681 123.899 113.498 122.58C114.314 121.262 115.46 120.179 116.822 119.437C118.134 118.742 119.662 118.366 121.308 118.777Z" fill="#575A88"/>
<path d="M147.301 159.954H138.975V168.28H147.301V159.954Z" fill="#B8B8B8"/>
<path d="M143.138 159.954C144.543 159.954 145.682 158.815 145.682 157.41C145.682 156.005 144.543 154.866 143.138 154.866C141.733 154.866 140.594 156.005 140.594 157.41C140.594 158.815 141.733 159.954 143.138 159.954Z" fill="#3F3D56"/>
<path d="M241.463 76.5164C248.401 76.5164 254.025 70.8923 254.025 63.9547C254.025 57.0171 248.401 51.3931 241.463 51.3931C234.526 51.3931 228.902 57.0171 228.902 63.9547C228.902 70.8923 234.526 76.5164 241.463 76.5164Z" fill="#FF6584"/>
<path d="M241.429 72.5349C241.429 82.0126 235.794 85.3219 228.844 85.3219C221.894 85.3219 216.259 82.0126 216.259 72.5349C216.259 63.0572 228.844 51 228.844 51C228.844 51 241.429 63.0572 241.429 72.5349Z" fill="#F2F2F2"/>
<path d="M228.385 83.872L228.514 75.94L233.878 66.1271L228.535 74.6958L228.592 71.1293L232.289 64.0297L228.608 70.1855L228.712 63.7709L232.671 58.1186L228.728 62.7621L228.793 51L228.384 66.5709L228.418 65.9285L224.393 59.768L228.354 67.1616L227.978 74.3258L227.967 74.1354L223.328 67.6524L227.953 74.8073L227.906 75.7032L227.898 75.7166L227.902 75.7902L226.95 93.966H228.221L228.374 84.5779L232.988 77.4405L228.385 83.872Z" fill="#3F3D56"/>
<path d="M271.753 86.7011C268.746 95.6892 262.352 97.0398 255.761 94.8346C249.17 92.6293 244.877 87.7034 247.884 78.7154C250.891 69.7273 266.651 62.286 266.651 62.286C266.651 62.286 274.76 77.7131 271.753 86.7011Z" fill="#F2F2F2"/>
<path d="M255.786 93.3144L258.425 85.8332L266.625 78.2289L258.839 84.6595L260.026 81.2956L265.784 75.7358L260.34 80.4054L262.474 74.3553L268.021 70.2512L262.809 73.4039L266.603 62.2701L261.275 76.9067L261.51 76.3082L259.648 69.1891L261.058 77.4572L258.429 84.1322L258.479 83.9483L256.136 76.3281L258.252 84.5809L257.924 85.4155L257.912 85.4257L257.892 85.4967L251.223 102.431L252.428 102.835L255.552 93.98L262.192 88.6755L255.786 93.3144Z" fill="#3F3D56"/>
<path d="M209.286 79.4688C212.695 88.3124 208.628 93.4266 202.142 95.9262C195.657 98.4258 189.209 97.3643 185.801 88.5207C182.392 79.6771 189.799 63.9008 189.799 63.9008C189.799 63.9008 205.878 70.6252 209.286 79.4688Z" fill="#F2F2F2"/>
<path d="M201.193 94.7384L198.461 87.2907L199.937 76.2053L198.032 86.1226L196.803 82.7737L197.7 74.8195L196.478 81.8875L194.269 75.8647L195.93 69.167L193.921 74.9176L189.752 63.9189L194.97 78.5953L194.77 77.9838L188.799 73.6828L195.154 79.1575L197.38 85.9771L197.301 85.8036L190.64 81.4231L197.53 86.4355L197.808 87.2884L197.805 87.3039L197.835 87.3712L203.484 104.673L204.67 104.216L201.436 95.401L203.175 87.0819L201.193 94.7384Z" fill="#3F3D56"/>
<path d="M182.559 154.611C181.779 155.855 180.767 155.826 179.855 155.254C178.943 154.682 178.476 153.784 179.256 152.541C180.035 151.297 182.679 150.75 182.679 150.75C182.679 150.75 183.339 153.368 182.559 154.611Z" fill="#B8B8B8"/>
<path d="M275.561 117.332C275.705 118.793 274.887 119.389 273.816 119.494C272.744 119.6 271.825 119.176 271.681 117.715C271.537 116.254 273.293 114.204 273.293 114.204C273.293 114.204 275.416 115.871 275.561 117.332Z" fill="#B8B8B8"/>
<path d="M178.411 128.12C177.631 129.364 176.619 129.334 175.707 128.763C174.795 128.191 174.328 127.293 175.107 126.049C175.887 124.805 178.531 124.258 178.531 124.258C178.531 124.258 179.19 126.876 178.411 128.12Z" fill="#B8B8B8"/>
</g>
<defs>
<clipPath id="clip0">
<rect width="250" height="181.396" fill="white" transform="translate(77 51)"/>
</clipPath>
</defs>
</svg>
