<svg width="61" height="73" viewBox="0 0 61 73" fill="none" xmlns="http://www.w3.org/2000/svg">
<path d="M60.1525 44.9874L51.4683 50.119V60.3822L60.1525 55.2369V44.9874Z" fill="#494953"/>
<path d="M60.1525 21.3032L51.4683 26.4348V36.698L60.1525 31.5527V21.3032Z" fill="#6FA5CF"/>
<path d="M41.2051 21.3032L49.8893 26.4348V36.698L41.2051 31.5527V21.3032Z" fill="#6FA5CF"/>
<path d="M59.6689 20.3164L50.8827 25.2714L41.9945 20.1398L50.7926 15.1917L59.6689 20.3164Z" fill="#6FA5CF"/>
<path d="M39.1425 8.47425L30.3563 13.4292L21.4682 8.29763L30.2662 3.34951L39.1425 8.47425Z" fill="#494953"/>
<path d="M29.363 15.3821L20.6788 20.5137V30.7768L29.363 25.6316V15.3821Z" fill="#494953"/>
<path d="M28.8795 14.3953L20.0933 19.3502L11.2051 14.2186L20.0032 9.27053L28.8795 14.3953Z" fill="#494953"/>
<path d="M49.8893 50.9084L41.2051 56.04V66.3032L49.8893 61.1579V50.9084Z" fill="#494953"/>
<path d="M49.4057 49.9216L40.6195 54.8766L31.7314 49.745L40.5294 44.7969L49.4057 49.9216Z" fill="#494953"/>
<path d="M60.1525 33.1453L51.4683 38.2768V48.54L60.1525 43.3947V33.1453Z" fill="#494953"/>
<path d="M41.2051 33.1453L49.8893 38.2768V48.54L41.2051 43.3947V33.1453Z" fill="#494953"/>
<path d="M49.4057 14.3953L40.6195 19.3502L31.7314 14.2186L40.5294 9.27053L49.4057 14.3953Z" fill="#6FA5CF"/>
<path d="M30.9419 15.3821L39.6261 20.5137V30.7768L30.9419 25.6316V15.3821Z" fill="#6FA5CF"/>
<path d="M0.152459 44.9874L8.83667 50.119V60.3822L0.152459 55.2369V44.9874Z" fill="#6FA5CF"/>
<path d="M28.8795 49.9216L20.0933 54.8766L11.2051 49.745L20.0032 44.7969L28.8795 49.9216Z" fill="#6FA5CF"/>
<path d="M10.4156 50.9084L19.0999 56.04V66.3032L10.4156 61.1579V50.9084Z" fill="#6FA5CF"/>
<path d="M39.6261 56.8295L30.9419 61.961V72.2242L39.6261 67.0789V56.8295Z" fill="#494953"/>
<path d="M39.1425 55.8427L30.3563 60.7976L21.4682 55.666L30.2662 50.7179L39.1425 55.8427Z" fill="#494953"/>
<path d="M20.6788 56.8295L29.363 61.961V72.2242L20.6788 67.0789V56.8295Z" fill="#494953"/>
<path d="M39.6261 33.1453L30.9419 38.2768V48.54L39.6261 43.3947V33.1453Z" fill="#6FA5CF"/>
<path d="M39.1425 32.1585L30.3563 37.1134L21.4682 31.9818L30.2662 27.0337L39.1425 32.1585Z" fill="#6FA5CF"/>
<path d="M20.6788 33.1453L29.363 38.2768V48.54L20.6788 43.3947V33.1453Z" fill="#6FA5CF"/>
<path d="M0.152459 33.1453L8.83667 38.2768V48.54L0.152459 43.3947V33.1453Z" fill="#494953"/>
<path d="M19.0999 33.1453L10.4156 38.2768V48.54L19.0999 43.3947V33.1453Z" fill="#494953"/>
<path d="M18.6163 20.3164L9.83009 25.2714L0.941937 20.1398L9.73997 15.1917L18.6163 20.3164Z" fill="#494953"/>
<path d="M0.152459 21.3032L8.83667 26.4348V36.698L0.152459 31.5527V21.3032Z" fill="#494953"/>
<path d="M19.0999 21.3032L10.4156 26.4348V36.698L19.0999 31.5527V21.3032Z" fill="#494953"/>
</svg>
