<?xml version="1.0" standalone="no"?>
<!DOCTYPE svg PUBLIC "-//W3C//DTD SVG 1.1//EN" "http://www.w3.org/Graphics/SVG/1.1/DTD/svg11.dtd" >
<svg xmlns="http://www.w3.org/2000/svg">
<metadata>Generated by IcoMoon</metadata>
<defs>
<font id="fluidicons" horiz-adv-x="1024">
<font-face units-per-em="1024" ascent="960" descent="-64" />
<missing-glyph horiz-adv-x="1024" />
<glyph unicode="&#x20;" horiz-adv-x="512" d="" />
<glyph unicode="&#xe900;" glyph-name="alarm" d="M703.159 92.378c0-85.333-69.205-154.539-154.539-154.539s-154.539 69.205-154.539 154.539h309.077zM820.407 368.836l86.357-82.731c12.672-12.16 19.797-28.928 19.797-46.464v-34.176c0-35.541-28.8-64.384-64.341-64.384h-627.2c-35.541 0-64.384 28.843-64.384 64.384v32.427c0 18.517 8.021 36.181 22.016 48.384l82.005 71.808c13.995 12.203 22.016 29.867 22.016 48.427v175.531c0 102.443 61.397 189.952 149.248 229.163 23.723 10.581 39.723 33.237 39.723 59.264v26.539c0 34.773 28.16 62.976 62.976 62.976 34.773 0 62.976-28.203 62.976-62.976v-26.539c0-26.027 16-48.683 39.723-59.264 87.851-39.211 149.291-126.72 149.291-229.163v-166.741c0-17.536 7.168-34.347 19.797-46.464z" />
<glyph unicode="&#xe901;" glyph-name="atoms" d="M380.885 658.842c-145.818 56.444-261.449 67.499-289.301 19.294-27.853-48.256 39.569-142.869 161.34-240.887 34.039 27.362 72.337 54.967 113.954 81.92 2.539 49.562 7.287 96.503 14.007 139.674zM764.706 437.244c-33.997-27.401-72.294-55.010-113.954-81.963-2.539-49.562-7.249-96.499-14.007-139.631 145.86-56.482 261.491-67.584 289.344-19.332s-39.569 142.869-161.382 240.926zM764.706 437.244c121.813 98.057 189.235 192.636 161.382 240.887-27.853 48.247-143.488 37.15-289.344-19.294 6.758-43.17 11.469-90.112 14.007-139.674 41.66-26.953 79.957-54.558 113.954-81.92zM650.765 519.164c-16.458 11.077-39.253 25.274-62.427 38.895l-7.41 4.027c-24.247 14.012-48.29 26.871-72.090 39.040-23.795-12.169-47.842-25.028-72.090-39.040-24.247-14.003-47.433-28.382-69.875-42.923-1.353-26.667-2.214-53.905-2.214-81.92s0.862-55.296 2.214-81.963c22.443-14.498 45.628-28.915 69.875-42.923 24.247-14.012 48.294-26.871 72.090-39.040 23.799 12.169 47.842 25.028 72.090 39.040 24.247 14.007 47.433 28.425 69.837 42.923 1.395 26.667 2.253 53.948 2.253 81.963s-0.858 55.253-2.253 81.92zM252.945 437.244c-121.771-98.057-189.235-192.674-161.382-240.926s143.526-37.15 289.344 19.332c-6.72 43.132-11.469 90.069-14.012 139.631-41.655 26.953-79.915 54.562-113.95 81.963zM380.885 215.642c24-154.5 72.252-260.258 127.957-260.258 55.667 0 103.915 105.758 127.919 260.258-40.713 15.77-83.721 35.102-127.915 57.673-44.203-22.571-87.249-41.899-127.962-57.673zM636.766 658.842c-24.004 154.462-72.252 260.22-127.957 260.22-55.667 0-103.919-105.758-127.919-260.22 40.713-15.77 83.763-35.145 127.915-57.711 44.241 22.571 87.249 41.941 127.957 57.711z" />
<glyph unicode="&#xe902;" glyph-name="basket" d="M795.14 61.222l28.762 224.725c2.091 16.341-10.018 31.232-27.11 33.237-17.237 2.005-32.64-9.643-34.731-25.984l-28.804-224.725c-2.095-16.384 10.061-31.232 27.157-33.237l-0.151 0.017c1.3-0.18 2.628-0.273 3.978-0.273 15.539 0 28.983 11.093 30.899 26.24zM623.377 62.161l16.474 225.835c1.199 16.469-11.755 30.72-28.941 31.872-17.719 1.024-32.055-11.221-33.259-27.691l-16.474-225.835c-1.199-16.469 11.755-30.72 28.941-31.872l-0.118 0.007c0.754-0.053 1.514-0.084 2.299-0.092 16.252 0 29.918 12.032 31.078 27.776zM432.823 34.47c17.186 1.152 30.14 15.403 28.937 31.872l-16.469 225.835c-1.203 16.469-16.119 28.8-33.259 27.691-17.186-1.152-30.144-15.403-28.937-31.872l16.469-225.835c1.156-15.744 14.827-27.776 31.074-27.776h0.019c0.767 0.008 1.528 0.039 2.165 0.085zM262.528 35.238c17.097 2.005 29.205 16.853 27.11 33.237l-28.757 224.725c-2.095 16.384-17.408 28.203-34.726 25.984-17.097-2.005-29.252-16.896-27.162-33.237l28.809-224.725c1.911-15.147 15.36-26.24 30.895-26.24h0.002c1.351 0.002 2.68 0.095 3.829 0.256zM0.026 511.953h1024v-106.667h-44.565l-89.045-469.333h-756.864l-89.045 469.333h-44.48v106.667zM133.555 618.679c-11.396 0-22.793 4.181-31.475 12.501-17.408 16.683-17.408 43.648 0 60.331l267.132 256c17.408 16.683 45.542 16.683 62.95 0s17.408-43.648 0-60.331l-267.127-256c-8.683-8.32-20.079-12.501-31.479-12.501zM858.944 631.181l-267.132 256c-17.408 16.683-17.408 43.648 0 60.331s45.547 16.683 62.955 0l267.132-256c17.408-16.683 17.408-43.648 0-60.331-8.683-8.32-20.079-12.501-31.475-12.501-11.401 0-22.797 4.181-31.479 12.501z" />
<glyph unicode="&#xe903;" glyph-name="bin" d="M600.917 174.221h67.541v270.208h-67.541v-270.208zM398.251 174.221h67.541v270.208h-67.541v-270.208zM195.541 647.095h675.584v-540.459c0-74.624-60.501-135.083-135.125-135.083h-405.333c-74.624 0-135.125 60.459-135.125 135.083v540.459zM871.125 849.783c37.333 0 67.541-30.251 67.541-67.541v-67.584h-810.667v67.584c0 37.291 30.251 67.541 67.584 67.541h236.416l33.792 67.541h135.125l33.749-67.541h236.459z" />
<glyph unicode="&#xe904;" glyph-name="bioTech" d="M963.806 361.643l-57.95 191.155c-1.31 178.786-119.479 332.092-281.673 386.283v-205.696l52.672-52.672c2.415 0.819 4.544 2.253 7.083 2.62 13.026 2.253 25.971-0.939 36.621-8.602 10.65-7.701 17.694-19.046 19.78-32.030 2.091-12.941-0.939-25.924-8.64-36.574-9.587-13.312-24.7-20.399-39.979-20.399-0.009 0-0.020 0-0.031 0-10.737 0-20.668 3.455-28.74 9.314l0.142-0.098c-18.594 13.436-24.124 37.274-16.094 57.711l-63.774 63.774v234.078c-24.146 5.581-52.005 8.991-80.588 9.417l-0.308 0.004c-37.598 0.738-73.971-4.139-108.783-13.107v-218.432c16.794-7.782 28.672-24.576 28.672-44.361 0-27.072-22.037-49.152-49.152-49.152-27.076 0-49.152 22.080-49.152 49.152 0 19.785 11.878 36.578 28.672 44.361v205.653c-153.271-57.301-264.269-204.015-267.217-377.19-0.247-13.841 0.939-28.096 2.782-42.513l242.432 2.867 64.678-62.831c8.107 3.358 16.713 5.282 25.643 4.053 13.299-1.995 24.645-9.092 32.181-19.199l0.092-0.129c7.821-10.53 11.098-23.514 9.173-36.497-1.993-13.288-9.092-24.623-19.198-32.142l-0.13-0.093c-8.041-6.057-18.197-9.702-29.204-9.707h-0.001c-2.558 0-5.074 0.178-7.537 0.523l0.284-0.033c-13.326 1.979-24.694 9.099-32.223 19.24l-0.093 0.131c-6.056 8.072-9.698 18.259-9.698 29.296 0 2.526 0.191 5.008 0.559 7.431l-0.034-0.272c0.41 2.581 1.801 4.71 2.539 7.125l-53.367 51.895-218.394-2.577c15.36-62.012 47.676-128.981 97.566-200.329 17.161-24.533 27.81-61.355 27.934-93.922l-19.499-173.995-0.124-2.291c0-36.864 29.982-66.884 66.889-66.884h166.208v246.528l63.774 63.774c-8.068 20.437-2.539 44.279 16.055 57.711 21.995 15.77 52.796 10.773 68.651-11.179 15.808-21.995 10.807-52.757-11.145-68.565-8.478-6.144-18.432-9.301-28.672-9.301-0.018 0-0.040 0-0.061 0-2.813 0-5.57 0.239-8.252 0.698l0.288-0.041c-2.543 0.371-4.629 1.805-7.006 2.624l-52.672-52.676v-229.572h38.093c36.864 0 66.884 30.025 66.884 70.366 0 20.646 16.794 37.436 37.436 37.436h125.743c65.536 0 118.903 53.372 118.903 118.946v123.695h45.175c18.637 0 35.716 8.559 46.818 23.552 11.098 14.95 14.379 33.792 8.969 51.648z" />
<glyph unicode="&#xe905;" glyph-name="bitCoin" d="M572.1 407.927h-146.927v-106.854h146.923c14.293 0 27.691 5.568 37.798 15.671 9.654 9.607 15.629 22.904 15.629 37.596 0 0.056 0 0.112 0 0.168v-0.009c0 14.293-5.568 27.691-15.629 37.798-9.634 9.655-22.955 15.629-37.671 15.629-0.046 0-0.093 0-0.139 0h0.007zM572.1 594.927h-146.927v-106.854h146.923c14.293 0 27.691 5.568 37.798 15.629 9.655 9.634 15.629 22.955 15.629 37.671 0 0.046 0 0.093 0 0.139v-0.007c0 0.046 0 0.1 0 0.155 0 14.693-5.975 27.99-15.627 37.594l-0.002 0.002c-9.617 9.68-22.937 15.672-37.657 15.672-0.051 0-0.103 0-0.154 0h0.008zM705.668 354.505c0-35.661-13.888-69.231-39.087-94.477-24.222-24.175-56.009-37.931-90.027-39.044v-40.115h-80.137v40.073h-35.618v-40.073h-80.141v40.073h-62.323v80.137h26.709v293.845h-26.709v80.137h62.327v40.077h80.137v-40.073h35.618v40.073h80.137v-40.158c34.018-1.114 65.805-14.874 90.027-39.049 25.199-25.242 39.087-58.769 39.087-94.43 0-35.26-13.577-68.386-38.199-93.495 24.666-25.109 38.199-58.283 38.199-93.495zM512 960c-282.756 0-512-229.244-512-512s229.244-512 512-512 512 229.244 512 512-229.244 512-512 512z" />
<glyph unicode="&#xe906;" glyph-name="bottle" d="M798.477 492.471c-57.54-24.674-137.169-20.382-238.933 12.919-107.422 35.063-206.46 37.547-297.446 8.243v67.145c0 35.84 15.945 69.436 43.691 92.16l101.764 83.14c18.419 15.050 30.084 37.765 30.084 63.206 0 0.047 0 0.094 0 0.14v-0.007 87.531c0.005 2.368 1.924 4.286 4.292 4.288h176.713c2.35-0.024 4.245-1.935 4.245-4.288 0 0 0 0 0 0v0-87.535c0-24.67 10.97-47.735 30.084-63.339l101.764-83.14c27.797-22.724 43.742-56.32 43.742-92.16v-88.307zM729.331 290.987c-11.119-25.745-37.107-43.789-67.388-43.789-40.422 0-73.143 32.137-73.143 71.68 0 19.849 8.192 37.79 21.406 50.714 0.636 0.631 1.417 1.122 2.099 1.707 13.018 11.895 30.379 19.311 49.638 19.311 40.375 0 73.143-32.085 73.143-71.731 0-9.899-2.048-19.311-5.756-27.891zM530.287 163.55c-6.002 0.013-11.719 1.214-16.934 3.381l0.294-0.108c-5.12 2.061-9.673 5.188-13.585 8.96-6.895 6.827-10.948 16.068-11.802 26.24-0.073 1.207-0.64 2.133-0.64 3.341 0 11.593 4.762 21.973 12.442 29.581 7.793 7.609 18.46 12.304 30.225 12.305v0c23.535 0 42.667-18.773 42.667-41.886s-19.132-41.813-42.667-41.813zM785.553 710.729l-101.764 83.14c-7.435 6.089-12.143 15.269-12.143 25.549v0 87.531c0 29.257-23.795 53.052-53.005 53.052h-176.713c-29.257 0-53.052-23.795-53.052-53.052v-87.535c0-10.28-4.708-19.46-12.085-25.502l-0.058-0.046-101.764-83.136c-39.155-32.030-61.636-79.386-61.636-129.95v-476.988c0-92.501 75.238-167.791 167.74-167.791h298.377c92.501 0 167.787 75.29 167.787 167.791v476.988c0 50.564-22.477 97.865-61.683 129.95z" />
<glyph unicode="&#xe907;" glyph-name="bulletList" d="M213.333 810.662c0-58.923-47.744-106.667-106.667-106.667s-106.667 47.744-106.667 106.667 47.744 106.667 106.667 106.667 106.667-47.744 106.667-106.667zM213.333 452.036c0-58.88-47.744-106.667-106.667-106.667s-106.667 47.787-106.667 106.667c0 58.923 47.744 106.667 106.667 106.667s106.667-47.744 106.667-106.667zM213.333 93.453c0-58.923-47.744-106.667-106.667-106.667s-106.667 47.744-106.667 106.667 47.744 106.667 106.667 106.667 106.667-47.744 106.667-106.667zM957.103 767.996h-620.928c-23.552 0-42.667 19.115-42.667 42.667 0 23.595 19.115 42.667 42.667 42.667h620.928c23.595 0 42.667-19.072 42.667-42.667 0-23.552-19.072-42.667-42.667-42.667zM957.103 409.37h-620.928c-23.552 0-42.667 19.115-42.667 42.667 0 23.595 19.115 42.667 42.667 42.667h620.928c23.595 0 42.667-19.072 42.667-42.667 0-23.552-19.072-42.667-42.667-42.667zM957.103 50.786h-620.928c-23.552 0-42.667 19.072-42.667 42.667 0 23.552 19.115 42.667 42.667 42.667h620.928c23.595 0 42.667-19.115 42.667-42.667 0-23.595-19.072-42.667-42.667-42.667z" />
<glyph unicode="&#xe908;" glyph-name="camera" d="M914.475 629.005v0c12.292 0.005 22.256 9.967 22.263 22.259v0.001c-0.007 12.291-9.971 22.254-22.263 22.258h-125.594c-12.29-0.007-22.251-9.969-22.259-22.259v-0.001c0.007-12.29 9.969-22.251 22.259-22.259h125.594zM512 246.251c109.077 0 197.453 88.375 197.453 197.41 0 109.030-88.375 197.406-197.453 197.406-108.988 0-197.41-88.375-197.41-197.406 0-109.035 88.422-197.41 197.41-197.41zM968.393 743.735c30.72 0 55.607-24.845 55.607-55.607v-488.892c0-30.763-24.887-55.654-55.607-55.654h-912.742c-30.72 0-55.65 24.887-55.65 55.654v488.892c0 30.763 24.93 55.607 55.65 55.607h912.742zM288.060 806.4v0c0 14.138-11.462 25.6-25.6 25.6h-108.629c-14.138 0-25.6-11.462-25.6-25.6v-40.209h159.829v40.205z" />
<glyph unicode="&#xe909;" glyph-name="chatboxRound" d="M1024 519.108c0 219.878-229.214 398.225-512.026 398.225-282.761 0-511.974-178.347-511.974-398.225 0-217.259 223.817-393.583 501.781-397.824 0 0 51.725 0.862 72.013 2.778 19.985-1.109 38.054-3.379 45.47-6.963l212.966-103.962c31.996-15.642 66.867 15.189 55.309 48.853l-34.014 98.961c-8.576 24.883-1.613 50.569 13.628 71.714 96.542 72.418 156.847 173.905 156.847 286.443z" />
<glyph unicode="&#xe90a;" glyph-name="chatboxSquare" d="M895.791 874.667h-767.578c-70.844 0-128.213-57.421-128.213-128.209v-426.236c0-70.835 57.37-128.256 128.209-128.256h536.734c11.315 0 22.246-4.489 30.293-12.535l170.21-170.21c27.029-27.076 73.229-7.906 73.229 30.293v118.741c0 18.249 12.685 32.687 29.807 39.031 32.444 12.096 55.518 43.371 55.518 80.055v469.12c0 70.78-57.37 128.205-128.209 128.205z" />
<glyph unicode="&#xe90b;" glyph-name="chats" d="M960.009 917.333c35.375 0 63.991-28.659 63.991-63.991v-383.996c0-35.371-28.617-63.991-63.991-63.991v-192.017l-191.974 192.017h-448.034c-35.328 0-63.991 28.617-63.991 63.991v383.996c0.004 35.328 28.663 63.991 63.991 63.991h640.004zM256.009 341.355h512.026v-128.021c0-35.332-28.663-63.991-64.038-63.991h-447.983l-192.021-191.979v191.979c-35.328-0.009-63.991 28.655-63.991 63.987v384.038c0 35.328 28.659 63.991 63.991 63.991h128.030v-256.013c0-35.328 28.659-63.991 63.991-63.991z" />
<glyph unicode="&#xe90c;" glyph-name="clip" d="M77.687 74.539c-53.090 53.090-80.606 123.938-77.44 199.62 3.43 82.641 43.238 164.331 115.123 236.22l318.093 318.089c17.664 17.621 46.268 17.621 63.889 0 8.188-8.179 13.252-19.482 13.252-31.968s-5.065-23.79-13.252-31.968v0l-318.046-318.042c-119.467-119.424-105.003-240.785-37.73-308.062 67.191-67.187 193.66-85.44 312.448 33.344l416.363 416.41c51.145 51.149 72.747 109.436 59.187 159.906-9.894 37.184-37.726 65.242-74.462 75.004-49.609 13.329-107.669-8.674-159.317-60.322l-384.465-384.418c-56.789-56.841-64.747-99.221-60.454-115.217 1.267-4.745 3.614-9.442 12.335-11.746 23.181-6.191 68.318 9.353 117.026 58.061l286.101 286.097c8.178 8.186 19.481 13.25 31.966 13.25s23.788-5.064 31.965-13.25v0c17.621-17.621 17.621-46.221 0-63.889l-286.144-286.144c-68.224-68.271-142.733-97.911-204.318-81.421-38.315 10.304-66.103 37.862-76.224 75.635-15.906 59.507 14.682 133.291 83.857 202.513l384.469 384.418c75.093 75.14 164.962 105.596 246.609 83.772 68.224-18.347 119.915-70.306 138.394-138.94 22.097-82.505-8.043-172.642-82.594-247.198l-416.41-416.41c-155.43-155.43-339.145-134.417-440.222-33.344z" />
<glyph unicode="&#xe90d;" glyph-name="cloudDownload" d="M676.352 386.133l-141.696-141.739c-5.798-5.799-13.808-9.386-22.656-9.387v0c-8.833 0.010-16.827 3.595-22.613 9.386v0l-141.739 141.739c-5.793 5.793-9.376 13.795-9.376 22.635 0 17.679 14.331 32.010 32.010 32.010 8.839 0 16.842-3.583 22.635-9.376l87.083-87.125v196.309c0 17.664 14.336 32 32 32s32-14.336 32-32v-196.309l87.083 87.125c5.796 5.774 13.791 9.344 22.62 9.344 0.013 0 0.025 0 0.038 0h-0.002c8.192 0 16.384-3.115 22.613-9.344 12.501-12.501 12.501-32.768 0-45.269zM878.805 526.592c-34.944 150.571-169.771 262.741-330.88 262.741-126.763 0-237.184-69.419-295.595-172.331-139.477-0.64-252.331-113.92-252.331-253.483 0-78.123 35.371-147.883 90.88-194.432h866.56c40.917 38.997 66.56 93.909 66.56 154.923 0 94.123-60.8 173.867-145.195 202.581z" />
<glyph unicode="&#xe90e;" glyph-name="cloudUpload1" d="M676.352 367.659c-5.779-5.811-13.774-9.413-22.61-9.429h-0.003c-8.852 0.025-16.858 3.624-22.656 9.429v0l-87.083 87.083v-196.352c0-17.664-14.336-32-32-32s-32 14.336-32 32v196.352l-87.083-87.083c-5.793-5.793-13.795-9.376-22.635-9.376-17.679 0-32.010 14.331-32.010 32.010 0 8.839 3.583 16.842 9.376 22.635l141.739 141.739c6.016 5.973 14.165 9.344 22.613 9.344 8.491 0 16.64-3.371 22.656-9.344l141.696-141.739c12.501-12.501 12.501-32.768 0-45.269zM878.805 526.592c-34.944 150.571-169.771 262.741-330.88 262.741-126.763 0-237.184-69.419-295.595-172.331-139.477-0.683-252.331-113.92-252.331-253.525 0-78.080 35.371-147.84 90.88-194.389h866.56c40.917 38.997 66.56 93.909 66.56 154.923 0 94.123-60.8 173.867-145.195 202.581z" />
<glyph unicode="&#xe90f;" glyph-name="costCenter1" d="M533.594 958.225v-179.132c0-15.868 12.757-28.766 28.527-28.766h177.771c-40.841 72.576-149.931 177.088-206.293 207.898zM817.173 267.123h-175.236c-13.441 0.002-24.336 10.897-24.341 24.337v0c0.005 13.441 10.9 24.335 24.341 24.337h175.236c13.441-0.002 24.336-10.897 24.341-24.337v0c-0.005-13.441-10.9-24.335-24.341-24.337v0zM817.173 141.534h-175.236c-13.442 0.002-24.339 10.899-24.341 24.341v0c0.005 13.441 10.9 24.335 24.341 24.337h175.236c13.441-0.002 24.336-10.897 24.341-24.337v0c-0.002-13.442-10.899-24.339-24.341-24.341v0zM729.553 483.686c-140.821 0-255.019-114.146-255.019-255.019s114.197-255.019 255.019-255.019c140.873 0 255.019 114.146 255.019 255.019s-114.146 255.019-255.019 255.019zM442.419 613.564l-86.891-169.105c-3.554-6.811-10.060-11.662-17.774-12.88l-0.138-0.018c-1.148-0.194-2.472-0.304-3.82-0.304-6.711 0-12.783 2.74-17.157 7.163l-0.002 0.002-64.841 65.178-88.738-153.088v-154.065h145.399c13.439-0.005 24.332-10.898 24.337-24.337v0c0-0.005 0-0.011 0-0.017 0-13.432-10.888-24.32-24.32-24.32-0.006 0-0.012 0-0.018 0h-169.736c-0.006 0-0.014 0-0.021 0-13.432 0-24.32 10.888-24.32 24.32 0 0.006 0 0.012 0 0.018v-0.001 462.434c0.005 13.441 10.9 24.335 24.341 24.337v0c0.005 0 0.011 0 0.017 0 13.432 0 24.32-10.888 24.32-24.32 0-0.006 0-0.012 0-0.018v0.001-186.923l62.549 107.921c3.818 6.387 10.278 10.857 17.833 11.91l0.13 0.015c7.45 1.067 15.040-1.609 20.348-7.010l63.62-63.962 71.552 139.315c6.187 11.925 20.838 16.695 32.811 10.513 7.899-4.137 13.196-12.276 13.196-21.653 0-4.055-0.991-7.878-2.743-11.241l0.064 0.135zM729.566 510.366c3.503 0 6.861-0.388 10.317-0.486v198.946c0 4.429-1.263 8.713-2.53 12.898h-201.327c-18.061 0-32.759 14.652-32.759 32.713v201.229c-4.139 1.314-8.324 2.581-12.8 2.581h-446.519c-24.29 0-43.955-19.712-43.955-43.955v-883.247c0-24.243 19.665-43.908 43.955-43.908h541.193c-82.167 49.212-137.318 138.778-137.318 241.536 0 155.571 126.17 281.694 281.745 281.694z" />
<glyph unicode="&#xe910;" glyph-name="coupon" d="M812.019 639.535c-29.952-29.952-78.507-29.952-108.459 0s-29.952 78.507 0 108.459c29.952 29.952 78.507 29.952 108.459 0s29.952-78.507 0-108.459zM589.875 214.959c-9.043-9.098-21.565-14.729-35.402-14.729-0.044 0-0.089 0-0.133 0h0.007c-0.039 0-0.085 0-0.131 0-13.836 0-26.358 5.629-35.399 14.722l-239.831 239.831c-19.652 19.652-19.652 51.469 0 71.070 9.088 9.104 21.652 14.737 35.531 14.737s26.443-5.632 35.53-14.736l239.83-239.83c19.652-19.652 19.652-51.469 0-71.070zM450.714 75.793c-9.074-9.096-21.622-14.724-35.485-14.724-0.017 0-0.034 0-0.051 0h0.003c-0.014 0-0.032 0-0.049 0-13.861 0-26.409 5.626-35.483 14.719l-239.83 239.835c-19.652 19.601-19.652 51.413 0 71.066 19.648 19.601 51.413 19.601 71.066 0l239.829-239.829c19.652-19.601 19.652-51.413 0-71.066zM995.908 857.353c-3.968 39.403-35.127 70.511-74.53 74.483l-274.155 27.738c-2.512 0.269-5.427 0.422-8.377 0.422-23.008 0-43.839-9.323-58.921-24.397l-555.498-555.494c-32.567-32.567-32.567-85.291 0-117.854l301.85-301.901c32.512-32.469 85.286-32.469 117.854 0l555.499 555.55c15.073 15.090 24.394 35.928 24.394 58.943 0 2.943-0.152 5.849-0.45 8.713l0.030-0.358-27.691 274.155z" />
<glyph unicode="&#xe911;" glyph-name="dashboard" d="M368.691 277.333h-318.473c-27.721 0-50.219 26.889-50.219 60.015v562.637c0 33.19 22.498 60.015 50.219 60.015h318.473c27.721 0 50.219-26.825 50.219-60.015v-562.637c0-33.126-22.498-60.015-50.219-60.015zM971.025 716.19h-312.96c-29.295 0-52.975 27.307-52.975 60.954v121.903c0 33.707 23.68 60.954 52.975 60.954h312.96c29.244 0 52.975-27.247 52.975-60.954v-121.903c0-33.647-23.731-60.954-52.975-60.954zM655.309 618.667h318.473c27.721 0 50.219-26.825 50.219-60.015v-562.637c0-33.126-22.498-60.015-50.219-60.015h-318.473c-27.721 0-50.219 26.889-50.219 60.015v562.637c0 33.19 22.498 60.015 50.219 60.015zM52.975 179.81h312.96c29.244 0 52.975-27.247 52.975-60.954v-121.903c0-33.647-23.731-60.954-52.975-60.954h-312.96c-29.295 0-52.975 27.307-52.975 60.954v121.903c0 33.707 23.68 60.954 52.975 60.954z" />
<glyph unicode="&#xe912;" glyph-name="document" d="M702.379 568.397c11.776 0 21.333 9.557 21.333 21.333s-9.557 21.333-21.333 21.333h-461.568c-11.819 0-21.333-9.557-21.333-21.333s9.515-21.333 21.333-21.333h461.568zM219.477 459.042v0.002c0-0.015 0-0.030 0-0.045 0-11.759 9.532-21.291 21.291-21.291 0.015 0 0.030 0 0.043 0h250.155c11.776 0 21.333 9.515 21.333 21.333 0 11.776-9.557 21.333-21.333 21.333h-250.155c-11.819 0-21.333-9.557-21.333-21.333zM702.379 306.978c11.776 0 21.333 9.557 21.333 21.333s-9.557 21.333-21.333 21.333h-461.568c-11.819 0-21.333-9.557-21.333-21.333s9.515-21.333 21.333-21.333h461.568zM490.965 176.29c11.776 0 21.333 9.515 21.333 21.333 0 11.776-9.557 21.333-21.333 21.333h-250.155c-11.819 0-21.333-9.557-21.333-21.333v0.002c0-0.015 0-0.030 0-0.045 0-11.759 9.532-21.291 21.291-21.291 0.015 0 0.030 0 0.043 0h250.155zM240.811 741.751c-11.819 0-21.333-9.515-21.333-21.333 0-11.776 9.515-21.333 21.333-21.333h250.155c11.776 0 21.333 9.557 21.333 21.333 0 11.819-9.557 21.333-21.333 21.333h-250.155zM815.701 791.415l83.456-4.395v-781.269c0-38.357-31.403-69.717-69.76-69.717h-674.304c-38.4 0-69.76 31.36-69.76 69.717v884.352c0 38.4 31.36 69.803 69.76 69.803h577.536l-3.755-72.064c-2.645-50.389 36.437-93.824 86.827-96.427zM757.978 960.021l141.056-148.907-79.829 4.139c-37.76 2.005-66.987 34.517-65.024 72.235l3.797 72.533z" />
<glyph unicode="&#xe913;" glyph-name="dollar" d="M642.581 268.489c-19.81-24.175-45.547-40.427-75.819-48.661-13.133-3.605-19.055-10.551-18.389-24.222 0.491-13.355-0.132-26.889-0.132-40.29 0-11.977-6.059-18.389-17.899-18.654-14.421-0.401-28.983-0.401-43.409-0.137-12.732 0.269-18.654 7.479-18.743 19.814-0.179 9.792-0.179 19.721-0.265 29.517-0.269 21.589-0.939 22.485-21.773 25.869-26.667 4.224-52.804 10.283-77.244 22.127-19.191 9.391-21.239 14.157-15.718 34.236 4.139 14.959 8.235 29.875 12.868 44.702 5.431 17.097 10.061 19.277 25.911 11.038 27.025-14.025 55.74-21.858 85.705-25.6 19.456-2.449 38.379-0.533 56.277 7.347 33.476 14.647 38.596 53.427 10.415 76.715-9.527 7.966-20.48 13.756-31.923 18.786-29.385 13.001-60.015 22.793-87.663 39.403-44.919 26.889-73.506 63.842-70.165 118.558 3.742 61.798 38.733 100.395 95.411 121.011 23.415 8.503 23.552 8.107 23.684 32.589 0.090 8.371-0.132 16.61 0.090 24.845 0.533 18.389 3.652 21.636 21.905 22.127 5.653 0.132 11.349 0 17.007 0 39.134 0 39.134 0 39.223-38.997 0.179-27.695 0.179-27.831 27.691-32.060 21.15-3.337 41.229-9.527 60.774-18.163 10.684-4.766 14.827-12.245 11.443-23.552-4.988-16.875-9.485-33.882-14.916-50.577-5.163-15.851-10.155-18.167-25.378-10.82-30.498 14.647-62.549 20.838-96.256 19.055-8.768-0.533-17.408-1.69-25.643-5.295-29.073-12.736-33.835-44.928-8.994-64.738 12.599-10.061 26.893-17.271 41.805-23.462 25.779-10.641 51.78-20.971 76.224-34.505 78.046-43.093 99.012-141.090 43.895-208.004zM512 960c-282.756 0-512-229.244-512-512s229.244-512 512-512 512 229.244 512 512-229.244 512-512 512z" />
<glyph unicode="&#xe914;" glyph-name="dollarCoins" d="M605.116 753.451c0-43.379-135.497-78.524-302.549-78.524-167.095 0-302.545 35.145-302.545 78.524s135.45 78.519 302.549 78.519c167.049 0 302.545-35.14 302.545-78.519zM302.545 517.248c167.1 0 302.549 35.14 302.549 78.519v-110.498c0-43.426-135.45-78.571-302.549-78.571s-302.545 35.145-302.545 78.571v110.498c0-43.379 135.445-78.524 302.549-78.524zM302.545 651.337c167.1 0 302.549 35.191 302.549 78.524v-110.498c0-43.379-135.45-78.571-302.549-78.571s-302.545 35.191-302.545 78.571v110.494c0-43.332 135.445-78.524 302.549-78.524zM692.365 63.040c167.095 0 302.545 35.145 302.545 78.524v-110.498c0-43.426-135.45-78.571-302.549-78.571-167.095 0-302.541 35.145-302.541 78.571v110.498c0-43.379 135.445-78.524 302.545-78.524zM692.365 197.133c167.095 0 302.545 35.191 302.545 78.524v-110.498c0-43.383-135.45-78.571-302.549-78.571-167.095 0-302.541 35.187-302.541 78.571v110.498c0-43.332 135.445-78.524 302.545-78.524zM368.32 315.52c0 0.141 0-16.337-0.047-41.003-19.474-1.218-42.232-1.912-65.153-1.912-0.2 0-0.401 0-0.601 0h0.031c-167.095 0-302.545 35.145-302.545 78.524v110.545c0-43.379 135.45-78.524 302.549-78.524 167.095 0 302.541 35.145 302.541 78.524v-67.166c-134.421-9.634-233.702-41.19-236.774-78.989zM368.226 250.931c-0.047-32.627-0.094-72.939-0.141-110.549-19.565-1.202-42.458-1.893-65.511-1.903h-0.025c-167.095 0-302.545 35.187-302.545 78.519v110.549c0-43.337 135.45-78.524 302.549-78.524 22.571 0 44.493 0.695 65.673 1.907zM994.931 299.251c0-43.383-135.492-78.524-302.545-78.524-167.095 0-302.545 35.14-302.545 78.524 0 43.379 135.45 78.519 302.549 78.519 167.049 0 302.541-35.14 302.541-78.519zM367.979 27.221c0-6.985 3.678-13.781 9.916-20.297-24.111-1.626-49.293-2.56-75.358-2.56-167.1 0-302.549 35.191-302.549 78.524v110.549c0-43.337 135.45-78.528 302.549-78.528 22.571 0 44.403 0.7 65.536 1.911-0.047-49.899-0.094-89.6-0.094-89.6zM940.574 720.427c54.272-29.978 68.843-98.121 30.537-144.666-13.781-16.849-31.701-28.113-52.736-33.835-9.126-2.517-13.269-7.356-12.8-16.853 0.371-9.31-0.094-18.709-0.094-28.019 0-8.333-4.19-12.8-12.429-12.988-5.21-0.12-11.348-0.188-17.501-0.188-4.453 0-8.897 0.036-13.332 0.107l0.669-0.008c-8.887 0.183-12.983 5.21-13.077 13.824-0.090 6.793-0.090 13.683-0.183 20.48-0.188 15.031-0.606 15.684-15.13 17.963-18.522 2.982-36.723 7.215-53.713 15.454-13.355 6.519-14.754 9.822-10.935 23.787 2.884 10.381 5.769 20.804 8.934 31.091 3.772 11.917 7.027 13.406 18.014 7.68 18.803-9.771 38.771-15.219 59.627-17.826 13.495-1.677 26.667-0.324 39.142 5.12 23.275 10.193 26.859 37.141 7.215 53.342-6.613 5.538-14.195 9.587-22.204 13.077-20.386 9.033-41.702 15.829-60.928 27.371-31.275 18.756-51.153 44.45-48.777 82.475 2.56 42.965 26.901 69.82 66.325 84.156 16.29 5.914 16.384 5.632 16.431 22.669 0.094 5.82-0.043 11.541 0.094 17.267 0.371 12.8 2.513 15.036 15.219 15.407 3.955 0.047 7.915 0 11.823 0 27.23 0 27.23 0 27.324-27.136 0.090-19.268 0.090-19.362 19.221-22.293 14.707-2.33 28.672-6.613 42.308-12.617 7.403-3.302 10.287-8.516 7.915-16.384-3.443-11.729-6.613-23.552-10.381-35.187-3.537-11.029-7.074-12.612-17.638-7.539-21.18 10.24-43.477 14.519-66.935 13.265-6.097-0.371-12.1-1.165-17.826-3.678-20.198-8.845-23.552-31.232-6.281-45.009 8.794-6.98 18.709-12.011 29.090-16.29 17.92-7.45 36.023-14.618 53.013-24.021z" />
<glyph unicode="&#xe915;" glyph-name="dollarSign" d="M629.726 490.91c-36.834 20.378-75.989 35.87-114.765 51.985-22.46 9.293-43.998 20.139-63.019 35.243-37.419 29.862-30.208 78.315 13.598 97.527 12.395 5.419 25.365 7.168 38.579 7.936 50.773 2.761 99.081-6.579 145.015-28.651 22.895-11.085 30.447-7.599 38.191 16.265 8.132 25.216 14.908 50.773 22.46 76.186 5.035 17.088-1.161 28.314-17.233 35.477-29.474 13.022-59.729 22.315-91.529 27.349-41.481 6.391-41.481 6.583-41.677 48.256-0.192 58.765-0.192 58.765-59.098 58.765-8.567 0-17.088 0.192-25.609 0-27.541-0.777-32.188-5.662-32.96-33.353-0.388-12.39 0-24.832-0.196-37.414-0.192-36.834-0.384-36.254-35.669-49.033-85.291-31.027-138.048-89.207-143.663-182.285-5.035-82.385 37.995-138.001 105.664-178.513 41.677-25.024 87.804-39.74 132.045-59.341 17.229-7.552 33.737-16.265 48.064-28.318 42.449-35.093 34.705-93.419-15.731-115.541-26.914-11.806-55.424-14.711-84.706-11.034-45.158 5.615-88.384 17.425-129.092 38.579-23.863 12.39-30.831 9.101-38.963-16.653-6.972-22.315-13.214-44.821-19.413-67.281-8.32-30.251-5.227-37.414 23.671-51.597 36.834-17.813 76.186-26.91 116.314-33.348 31.415-5.035 32.384-6.391 32.768-38.916 0.196-14.763 0.196-29.675 0.388-44.437 0.192-18.586 9.101-29.427 28.267-29.867 8.258-0.15 18-0.236 27.762-0.236 13.214 0 26.392 0.157 39.532 0.469l-1.95-0.037c17.86 0.435 26.965 10.116 26.965 28.122 0 20.186 0.964 40.516 0.192 60.698-0.969 20.574 7.936 30.976 27.733 36.45 45.547 12.39 84.318 36.834 114.185 73.28 82.961 100.779 51.354 248.363-66.121 313.267z" />
<glyph unicode="&#xe916;" glyph-name="education" d="M790.276 134.144h-102.844v374.869c0 4.322-2.539 8.064-6.545 9.574l-181.248 131.157 218.334-35.255c43.234-16.7 72.303-59.081 72.303-105.472v-374.874zM665.195 455.881v-195.098c-46.259-8.503-98.125-13.44-153.199-13.44-191.667 0-347.051 57.963-347.051 129.463v143.403l316.109-113.438c13.222-4.719 27.648-4.809 40.96-0.222l143.181 49.331zM812.54 506.62l46.481 16.030v-145.856c0-23.509-17.054-45.5-46.481-64.512v194.342zM1019.87 613.227c1.773-0.661 3.142-2.045 3.771-3.783l0.014-0.044c1.109-3.204-0.627-6.677-3.831-7.838l-208.896-71.991c-7.347 47.194-39.625 88.243-84.949 105.694-1.287 0.523-2.788 0.929-4.348 1.149l-0.102 0.012-218.334 35.26c-1.051 0.198-2.259 0.312-3.494 0.312-0.039 0-0.078 0-0.117 0h0.006c-12.278-0.014-22.225-9.971-22.225-22.251 0-7.396 3.609-13.949 9.161-17.995l0.064-0.044 178.62-129.25v-23.061l-143.228-49.374c-5.984-2.127-12.887-3.357-20.076-3.357-7.475 0-14.639 1.329-21.269 3.763l0.428-0.138-476.996 171.183c-1.743 0.63-3.089 1.989-3.686 3.7l-0.013 0.042c-0.233 0.622-0.368 1.341-0.368 2.092 0 2.662 1.696 4.928 4.067 5.775l0.043 0.013 487.424 172.698c6.138 2.243 13.225 3.54 20.614 3.54s14.476-1.297 21.045-3.676l-0.43 0.136 487.113-172.565z" />
<glyph unicode="&#xe917;" glyph-name="energy" d="M830.417 537.54l-326.285-548.113c-12.416-20.958-44.587-8.815-40.119 15.078l54.656 295.258c2.445 13.393-7.842 25.749-21.453 25.749h-262.050c-16.93 0-27.379 18.398-18.726 32.99l326.229 548.109c12.467 20.907 44.638 8.764 40.23-15.134l-54.707-295.253c-2.505-13.397 7.838-25.754 21.449-25.754h262.050c16.93 0 27.383-18.398 18.726-32.93z" />
<glyph unicode="&#xe918;" glyph-name="euro" d="M665.421 213.235c-12.033-5.706-26.396-11.050-41.257-15.201l-1.973-0.47c-56.499-15.582-112.951-16.115-169.045 2.048-67.81 21.995-112.866 68.164-139.759 133.035-5.077 12.51-8.503 25.775-12.51 38.865h-53.111c-0.019 0-0.042 0-0.064 0-8.867 0-16.055 7.188-16.055 16.055 0 0.021 0 0.042 0 0.063v-0.003 35.797c0 0.009 0 0.019 0 0.030 0 8.884 7.202 16.085 16.085 16.085 0.012 0 0.024 0 0.036 0h44.073v29.163h-44.075c-0.019 0-0.042 0-0.064 0-8.867 0-16.055 7.188-16.055 16.055 0 0.023 0 0.045 0 0.068v-0.003 35.797c0 0.009 0 0.019 0 0.030 0 8.884 7.202 16.085 16.085 16.085 0.012 0 0.024 0 0.036 0h55.917l1.869 5.564c15.002 47.996 40.917 88.819 80.896 119.718 31.654 24.619 68.339 38.11 107.605 44.433 55.876 8.905 109.973 1.293 162.419-19.187 3.383-1.293 6.677-2.85 9.839-4.676 12.599-7.39 15.851-16.875 10.283-30.276-5.833-14.246-11.75-28.403-18.163-42.295-5.521-12.109-13.043-15.893-26.001-12.954-17.762 4.006-35.17 9.438-52.89 13.043-37.444 7.701-74.577 8.060-110.903-6.323-31.258-12.42-50.313-36.241-63.36-65.937-0.218-0.222-0.218-0.666-0.218-1.109h108.855c8.905 0 16.073-7.211 16.073-16.119v-35.797c0-0.022 0-0.047 0-0.073 0-8.86-7.183-16.043-16.043-16.043-0.011 0-0.021 0-0.032 0h-124.525c-0.137-9.57 0-19.145 0-29.163h124.527c8.905 0 16.073-7.211 16.073-16.115v-35.797c0-0.022 0-0.047 0-0.073 0-8.86-7.183-16.043-16.043-16.043-0.011 0-0.021 0-0.032 0h-113.662c13.713-39.223 36.062-69.547 77.909-82.722 33.438-10.594 67.409-9.929 101.248-2.85 17.536 3.61 34.722 8.905 52.267 12.958 13.798 3.157 21.235-0.533 26.978-13.18 6.545-14.114 12.51-28.493 18.389-42.871 5.342-12.958 1.869-23.424-11.622-29.611zM512 960c-282.756 0-512-229.197-512-512 0-282.756 229.244-512 512-512 282.803 0 512 229.244 512 512 0 282.803-229.197 512-512 512z" />
<glyph unicode="&#xe919;" glyph-name="filter" d="M843.409 611.392h-49.126c-0.363 0-0.631 0.183-0.951 0.226-10.423-51.571-56.149-90.385-111.027-90.385-55.151 0-100.966 39.266-111.121 91.153-1.63-0.363-3.17-0.994-4.937-0.994h-389.099c-12.553 0-22.656 10.146-22.656 22.541 0 12.489 10.103 22.541 22.656 22.541h389.099c1.766 0 3.307-0.631 4.937-0.947 10.155 51.934 55.97 91.11 111.121 91.11 54.878 0 100.608-38.771 111.027-90.342 0.32 0.043 0.589 0.179 0.951 0.179h49.126c12.506 0 22.656-10.052 22.656-22.541 0-12.395-10.15-22.541-22.656-22.541zM843.409 239.479h-389.099c-1.766 0-3.307 0.631-4.941 0.994-10.15-51.887-55.966-91.153-111.117-91.153-54.882 0-100.608 38.814-111.074 90.385-0.273-0.043-0.546-0.226-0.909-0.226h-49.118c-12.553 0-22.656 10.146-22.656 22.541 0 12.489 10.103 22.541 22.656 22.541h49.122c0.363 0 0.64-0.137 0.909-0.179 10.466 51.571 56.192 90.338 111.074 90.338 55.151 0 100.966-39.172 111.117-91.106 1.634 0.316 3.174 0.947 4.941 0.947h389.099c12.506 0 22.656-10.052 22.656-22.541 0-12.395-10.15-22.541-22.656-22.541zM964.723 960h-905.404c-32.764 0-59.319-26.368-59.319-58.965v-906.069c0-32.546 26.556-58.965 59.319-58.965h905.404c32.721 0 59.277 26.419 59.277 58.965v906.069c0 32.597-26.556 58.965-59.277 58.965z" />
<glyph unicode="&#xe91a;" glyph-name="finance" d="M99.853 326.711c-26.295 0-47.522 21.316-47.522 47.522s21.227 47.569 47.522 47.569c8.61 0 16.247-2.931 23.181-6.891l201.54 194.005c-1.114 4.049-2.513 7.957-2.513 12.288 0 26.202 21.227 47.569 47.573 47.569 21.035 0 38.306-13.918 44.544-32.815l172.774-65.724c8.235 6.891 18.475 11.546 30.067 11.546 6.562 0 12.757-1.306 18.432-3.725l213.41 235.614c-1.348 4.373-2.743 8.657-2.743 13.449 0 26.206 21.222 47.526 47.569 47.526 26.295 0 47.522-21.321 47.522-47.526 0-26.202-21.227-47.569-47.522-47.569-4.608 0-8.798 1.442-12.988 2.654l-217.643-240.269c0.414-2.603 1.536-4.979 1.536-7.68 0-26.202-21.227-47.522-47.573-47.522-23.646 0-42.402 17.596-46.033 40.171l-166.029 63.159c-8.747-9.865-21.082-16.384-35.328-16.384-4.979 0-9.446 1.399-13.961 2.795l-208.525-200.798c0-0.465 0.23-0.93 0.23-1.442 0-26.206-21.222-47.522-47.522-47.522zM986.765 88.828c12.843 0 23.27-10.428 23.27-23.275-0.005-12.851-10.42-23.267-23.27-23.275h-963.491c-0.006 0-0.014 0-0.021 0-12.842 0-23.253 10.411-23.253 23.253 0 0.008 0 0.015 0 0.023v-0.001c0 0.006 0 0.014 0 0.021 0 12.842 10.411 23.253 23.253 23.253 0.008 0 0.015 0 0.023 0h326.373c0 0.695-0.371 1.301-0.324 2.001l6.097 336.009c0.183 13.547 11.264 24.393 24.806 24.393h76.011c13.867 0 25.088-11.405 24.806-25.276l-6.097-336.060c0-0.371-0.183-0.695-0.23-1.067h110.635c-0.043 0.836-0.414 1.579-0.414 2.466l5.21 143.172c0.489 13.315 11.401 23.923 24.791 23.923 0.007 0 0.014 0 0.021 0h76.005c14.012 0 25.276-11.682 24.764-25.737l-5.163-143.177c0-0.23-0.145-0.418-0.145-0.649h109.431c-0.047 0.649-0.375 1.161-0.375 1.86l6.426 539.136c0.154 13.58 11.199 24.529 24.801 24.529 0.002 0 0.004 0 0.006 0h76.010c13.729-0.011 24.855-11.144 24.855-24.875 0-0.090 0-0.18-0.001-0.27v0.014l-6.421-539.136c0-0.427-0.235-0.841-0.235-1.259h41.847z" />
<glyph unicode="&#xe91b;" glyph-name="gridView" d="M405.342 511.987h-298.667c-23.552 0-42.667 19.115-42.667 42.667v298.667c0 23.595 19.115 42.667 42.667 42.667h298.667c23.552 0 42.667-19.072 42.667-42.667v-298.667c0-23.552-19.115-42.667-42.667-42.667zM917.342 511.987h-298.667c-23.552 0-42.667 19.115-42.667 42.667v298.667c0 23.595 19.115 42.667 42.667 42.667h298.667c23.552 0 42.667-19.072 42.667-42.667v-298.667c0-23.552-19.115-42.667-42.667-42.667zM405.342-0.013h-298.667c-23.552 0-42.667 19.115-42.667 42.667v298.667c0 23.595 19.115 42.667 42.667 42.667h298.667c23.552 0 42.667-19.072 42.667-42.667v-298.667c0-23.552-19.115-42.667-42.667-42.667zM917.342-0.013h-298.667c-23.552 0-42.667 19.115-42.667 42.667v298.667c0 23.595 19.115 42.667 42.667 42.667h298.667c23.552 0 42.667-19.072 42.667-42.667v-298.667c0-23.552-19.115-42.667-42.667-42.667z" />
<glyph unicode="&#xe91c;" glyph-name="growth" d="M958.080 9.643h42.325c13.026 0 23.595-10.573 23.595-23.595-0.005-13.029-10.566-23.59-23.594-23.595h-976.811c-0.006 0-0.014 0-0.021 0-13.019 0-23.573 10.554-23.573 23.573 0 0.007 0 0.015 0 0.022v-0.001c0 13.022 10.522 23.595 23.595 23.595h108.087c-0.030 0.465-0.047 1.007-0.047 1.554 0 0.331 0.006 0.661 0.019 0.99l-0.001-0.047 5.239 145.152c0.516 13.5 11.605 24.256 25.152 24.256h77.056c14.251 0 25.673-11.844 25.152-26.095l-5.282-145.152c-0.011-0.28-0.023-0.51-0.038-0.739l0.004 0.078h105.045c-0.030 0.462-0.047 1.003-0.047 1.547 0 0.163 0.002 0.325 0.005 0.487v-0.024l6.178 340.706c0.259 13.684 11.413 24.678 25.135 24.678 0.006 0 0.012 0 0.018 0h77.055c14.067 0 25.438-11.563 25.203-25.621l-6.182-340.659c-0.009-0.416-0.026-0.803-0.051-1.187l0.004 0.077h105.946c-0.029 0.453-0.045 0.983-0.045 1.517 0 0.127 0.001 0.253 0.003 0.379v-0.019l6.464 546.59c0.154 13.768 11.352 24.87 25.142 24.87 0.004 0 0.007 0 0.011 0h77.055c14.016 0 25.344-11.469 25.203-25.481l-6.515-546.59c-0.004-0.458-0.019-0.902-0.046-1.342l0.003 0.071h106.249c-0.030 0.466-0.048 1.011-0.048 1.56 0 0.074 0 0.148 0.001 0.222v-0.011l6.699 825.617c0.097 13.806 11.311 24.96 25.13 24.96 0.008 0 0.015 0 0.023 0h77.059c13.918-0.002 25.2-11.285 25.2-25.203 0-0.065 0-0.129-0.001-0.193v0.010l-6.699-825.57c-0.005-0.501-0.023-0.986-0.055-1.468l0.004 0.077zM672.205 940.651c0.896-2.453 1.557-5.052 1.557-7.834v-105.984c0-0.006 0-0.014 0-0.021 0-13.019-10.554-23.573-23.573-23.573-0.007 0-0.015 0-0.022 0h0.001c-13.029 0.005-23.59 10.566-23.595 23.594v0 48.559l-539.038-545.408c-4.252-4.343-10.175-7.036-16.727-7.036-0.008 0-0.016 0-0.025 0h0.001c-0.008 0-0.017 0-0.027 0-6.472 0-12.333 2.614-16.584 6.845l0.001-0.001c-4.321 4.281-6.997 10.216-6.997 16.777 0 6.467 2.6 12.327 6.811 16.591l-0.002-0.002 541.44 547.861-53.555 1.749c-12.688 0.445-22.805 10.838-22.805 23.594 0 0.264 0.004 0.528 0.013 0.79l-0.001-0.038c0.427 12.979 10.052 24.021 24.35 22.793l107.541-3.541c0.38 0 0.661-0.282 1.041-0.329 3.776-0.282 7.168-1.557 10.24-3.396 0.912-0.552 1.682-1.081 2.421-1.649l-0.061 0.045c3.157-2.5 5.803-5.521 7.36-9.297 0.047-0.094 0.141-0.094 0.141-0.188 0.094-0.286 0-0.614 0.094-0.896z" />
<glyph unicode="&#xe91d;" glyph-name="headphone" d="M871.347 16.043v217.843c0 40.115-32.503 72.572-72.61 72.572h-72.619c-40.115 0-72.619-32.457-72.619-72.572v-217.843c0-40.073 32.503-72.619 72.619-72.619h72.614c40.115 0 72.614 32.546 72.614 72.619zM575.198 955.691c256.171-32.853 441.387-263.39 441.387-521.707v-345.357h-145.233v72.619h72.619v290.458h-6.46c-35.883 0-65.357 26.402-71.411 61.751-29.385 170.876-178.667 301.325-357.82 301.325-179.115 0-328.393-130.449-357.824-301.325-6.054-35.349-35.482-61.751-71.369-61.751h-6.498v-290.458h72.614v-72.619h-145.186v363.085c0 302.302 265.216 543.787 575.177 503.987zM145.212 233.869c0 40.115 32.503 72.614 72.619 72.614h72.61c40.115 0 72.619-32.499 72.619-72.619v-217.843c0-40.064-32.503-72.567-72.619-72.567h-72.61c-40.111 0-72.614 32.499-72.614 72.567v217.847z" />
<glyph unicode="&#xe91e;" glyph-name="heart" d="M0 611.004c0 169.216 128.512 306.33 287.078 306.33 91.136 0 172.339-45.261 224.922-115.866 52.582 70.605 133.786 115.866 224.922 115.866 158.515 0 287.078-137.114 287.078-306.33 0-88.525-35.226-168.346-91.546-224.307l-327.782-350.515c-48.845-52.224-129.843-54.118-180.992-4.301-1.382 1.434-2.765 2.816-4.147 4.25l-327.936 350.515c-56.371 55.962-91.597 135.782-91.597 224.358z" />
<glyph unicode="&#xe91f;" glyph-name="historicalData" d="M975.206 8.393h-41.515v573.44c0 0.001 0 0.003 0 0.004 0 8.584-6.959 15.543-15.543 15.543-0.003 0-0.006 0-0.009 0h-91.366c-0.010 0-0.022 0-0.034 0-8.568 0-15.514-6.946-15.514-15.514 0-0.012 0-0.024 0-0.036v0.002-573.44h-132.651v202.893c-0.002 8.561-6.943 15.501-15.505 15.501-0.015 0-0.030 0-0.045 0h-91.369c-0.004 0-0.008 0-0.013 0-8.567 0-15.514-6.936-15.531-15.499v-202.895h-132.655v165.282c0 0.001 0 0.003 0 0.004 0 8.584-6.959 15.543-15.543 15.543-0.002 0-0.003 0-0.005 0h-91.37c-8.563-0.019-15.497-6.965-15.497-15.531 0-0.006 0-0.012 0-0.018v0.001-165.282h-40.823c-0.005 0-0.011 0-0.017 0-12.842 0-23.253-10.411-23.253-23.253 0-0.006 0-0.012 0-0.018v0.001c0-0.006 0-0.014 0-0.021 0-12.842 10.411-23.253 23.253-23.253 0.006 0 0.012 0 0.018 0h714.986c12.852 0.005 23.27 10.422 23.275 23.274v0c-0.007 12.85-10.424 23.266-23.274 23.27v0zM179.072 713.668l-49.95-59.669c12.194 121.481 109.197 216.759 228.075 216.759 127.113 0 230.49-108.587 230.49-242.035 0-133.444-103.377-241.988-230.49-241.988-12.852-0.005-23.27-10.422-23.275-23.274v0c0-0.005 0-0.011 0-0.017 0-12.842 10.411-23.253 23.253-23.253 0.008 0 0.015 0 0.023 0h-0.001c152.759 0 277.035 129.442 277.035 288.533 0 159.138-124.275 288.58-277.035 288.58-141.5 0-258.377-111.104-274.854-253.952l-39.424 61.862c-4.202 6.49-11.407 10.725-19.601 10.725-4.645 0-8.973-1.361-12.606-3.706l0.092 0.055c-6.537-4.185-10.808-11.409-10.808-19.631 0-4.634 1.357-8.951 3.695-12.576l-0.055 0.092 80.162-125.675c0.371-0.606 1.067-0.883 1.489-1.442 1.339-1.729 2.871-3.218 4.587-4.47l0.064-0.045c0.981-0.7 1.865-1.399 2.935-1.958 2.048-1.067 4.279-1.626 6.656-2.048 0.836-0.137 1.536-0.695 2.419-0.742 0.417-0.027 0.905-0.043 1.396-0.043 3.462 0 6.744 0.771 9.683 2.15l-0.14-0.059c0.789 0.371 1.395 0.977 2.142 1.442 2.001 1.165 3.908 2.466 5.491 4.19 0.23 0.277 0.555 0.371 0.789 0.606l93.513 111.71c3.348 4.011 5.381 9.222 5.381 14.907 0 7.151-3.217 13.552-8.282 17.833l-0.035 0.028c-9.818 8.235-24.435 6.933-32.811-2.889z" />
<glyph unicode="&#xe920;" glyph-name="home" d="M473.515 903.031l-460.766-431.761c-28.928-27.098-5.431-69.525 38.502-69.525 28.241 0 51.145-18.752 51.145-41.924v-319.121c0-23.177 22.899-41.929 51.14-41.929h225.412c28.241 0 51.145 18.752 51.145 41.929v184.764c0 23.177 22.899 41.929 51.14 41.929h61.542c28.241 0 51.14-18.752 51.14-41.929v-184.764c0-23.177 22.903-41.929 51.145-41.929h225.412c28.241 0 51.14 18.752 51.14 41.929v319.121c0 23.172 22.903 41.924 51.145 41.924 43.934 0 67.426 42.428 38.502 69.525l-460.774 431.761c-20.348 19.072-56.572 19.072-76.962 0z" />
<glyph unicode="&#xe921;" glyph-name="honeycomb" d="M0 303.757c0 16.337 8.708 31.351 22.831 39.543l175.501 101.308c6.551 3.84 14.426 6.108 22.831 6.108s16.28-2.268 23.047-6.225l-0.216 0.117 175.501-101.308c14.123-8.192 22.831-23.211 22.831-39.543v-202.709c-0.015-16.793-9.096-31.463-22.611-39.38l-0.215-0.117-175.509-101.359c-6.551-3.84-14.426-6.108-22.831-6.108s-16.28 2.268-23.047 6.225l0.216-0.117-175.497 101.359c-13.73 8.035-22.811 22.703-22.831 39.494v202.712zM581.675 303.757c0 16.337 8.704 31.351 22.784 39.543l175.548 101.308c6.543 3.84 14.41 6.107 22.807 6.107s16.264-2.268 23.023-6.224l-0.216 0.117 175.548-101.308c14.123-8.192 22.831-23.211 22.831-39.543v-202.709c0-16.243-8.708-31.356-22.831-39.497l-175.548-101.355c-6.543-3.84-14.41-6.107-22.807-6.107s-16.264 2.268-23.023 6.224l0.216-0.117-175.548 101.355c-13.704 8.054-22.762 22.715-22.784 39.493v202.712zM290.829 813.039c0 16.29 8.704 31.356 22.827 39.497l175.509 101.355c6.551 3.84 14.426 6.108 22.831 6.108s16.28-2.268 23.047-6.225l-0.216 0.117 175.501-101.355c14.123-8.141 22.831-23.211 22.831-39.497v-202.709c0-16.286-8.708-31.351-22.831-39.543l-175.501-101.308c-6.551-3.84-14.426-6.108-22.831-6.108s-16.28 2.268-23.047 6.225l0.216-0.117-175.505 101.308c-13.733 8.054-22.813 22.736-22.831 39.541v202.712z" />
<glyph unicode="&#xe922;" glyph-name="income" d="M694.895 242.441s226.748 123.102 269.090 120.175 60.015-4.915 60.015-4.915-349.508-309.696-423.616-321.562c-74.163-11.81-369.067 41.152-369.067 41.152l-115.563-87.36-115.755 178.944s194.389 148.471 293.218 159.044c98.829 10.624 298.325-61.751 298.325-61.751s7.893-42.342-21.641-56.491c-29.534-14.144-189.918-27.994-189.918-27.994 113.425-23.531 219.554-10.428 314.91 60.757zM577.293 614.242c-9.907-12.087-22.775-20.211-37.914-24.329-6.566-1.805-9.527-5.278-9.19-12.109 0.243-6.682-0.068-13.449-0.068-20.147 0-5.99-3.029-9.195-8.947-9.327-7.211-0.201-14.494-0.201-21.705-0.068-6.37 0.132-9.327 3.742-9.374 9.907-0.085 4.898-0.085 9.86-0.132 14.758-0.137 10.795-0.469 11.243-10.889 12.932-13.333 2.116-26.398 5.146-38.622 11.063-9.591 4.698-10.615 7.083-7.855 17.122 2.069 7.479 4.117 14.933 6.43 22.349 2.718 8.546 5.035 9.638 12.958 5.521 13.513-7.014 27.87-10.931 42.85-12.8 9.728-1.225 19.191-0.269 28.139 3.669 16.742 7.326 19.302 26.714 5.21 38.357-4.762 3.985-10.24 6.878-15.957 9.395-14.694 6.498-30.012 11.396-43.836 19.699-22.46 13.449-36.753 31.923-35.081 59.281 1.869 30.899 19.366 50.197 47.701 60.506 11.712 4.254 11.776 4.053 11.844 16.299 0.043 4.181-0.068 8.299 0.043 12.416 0.269 9.195 1.826 10.82 10.953 11.068 2.829 0.064 5.675 0 8.503 0 19.571 0 19.571 0 19.614-19.499 0.085-13.85 0.085-13.918 13.845-16.030 10.573-1.673 20.617-4.766 30.387-9.088 5.342-2.377 7.411-6.118 5.717-11.776-2.492-8.435-4.736-16.939-7.454-25.284-2.581-7.923-5.077-9.084-12.689-5.41-15.249 7.326-31.275 10.419-48.128 9.527-4.386-0.265-8.704-0.845-12.821-2.645-14.537-6.37-16.917-22.464-4.497-32.371 6.298-5.030 13.444-8.636 20.907-11.733 12.885-5.316 25.886-10.483 38.106-17.25 39.023-21.547 49.51-70.545 21.952-104.004zM512 960c-141.38 0-256-114.62-256-256s114.62-256 256-256 256 114.62 256 256-114.62 256-256 256z" />
<glyph unicode="&#xe923;" glyph-name="keys" d="M281.6 704c42.445 0 76.8 34.355 76.8 76.8 0 42.394-34.355 76.8-76.8 76.8-42.394 0-76.8-34.406-76.8-76.8 0-42.445 34.406-76.8 76.8-76.8zM281.6 960c155.494 0 281.6-126.106 281.6-281.6 0-128.922-86.682-237.312-204.8-270.694v-394.906l-76.8-76.8-76.8 76.8v76.8l-51.2 51.2 51.2 51.2v51.2l-51.2 51.2 51.2 51.2v62.106c-118.118 33.382-204.8 141.773-204.8 270.694 0 155.494 126.106 281.6 281.6 281.6zM744.777 477.423l279.245-279.194v-108.595h-108.595l-54.374 51.2h-67.43v75.52l-25.6 26.88h-76.8v76.8l-55.040 48.794c-84.122-46.95-187.034-47.36-271.514-1.331v17.715c127.693 36.147 221.389 153.344 221.389 292.71 0 85.606-35.43 162.867-92.314 218.163 73.83 1.382 148.070-26.061 204.442-82.432 91.085-91.085 106.496-229.018 46.592-336.23z" />
<glyph unicode="&#xe924;" glyph-name="language" d="M723.038 792.247h-302.473v89.011c0 0.010 0 0.022 0 0.034 0 21.731-17.616 39.347-39.347 39.347-0.012 0-0.024 0-0.036 0h0.002c-0.005 0-0.011 0-0.017 0-21.745 0-39.373-17.628-39.373-39.373 0-0.003 0-0.006 0-0.009v0.001-89.011h-302.396c-0.010 0-0.022 0-0.034 0-21.731 0-39.347-17.616-39.347-39.347 0-0.012 0-0.024 0-0.036v0.002c0-21.781 17.604-39.386 39.381-39.386h487.070c-35.17-115.042-123.076-211.499-158.127-246.511-53.329 60.851-92.553 118.827-90.667 152.38 0.042 0.684 0.067 1.484 0.067 2.289 0 20.946-16.375 38.066-37.022 39.259l-0.105 0.005c-21.973 0.866-40.29-15.36-41.549-37.060-3.465-61.009 50.295-140.762 112.717-212.049l-205.978-201.886c-15.518-15.241-15.757-40.171-0.555-55.689 7.723-7.838 17.963-11.819 28.122-11.819 0.009 0 0.021 0 0.032 0 10.74 0 20.475 4.299 27.58 11.27l-0.006-0.006 204.489 200.512c52.105-52.736 101.022-94.72 120.201-110.75 6.745-5.685 15.531-9.139 25.124-9.139 0.016 0 0.031 0 0.047 0h-0.002c11.264 0 22.485 4.804 30.285 14.14 5.684 6.791 9.136 15.62 9.136 25.255 0 12.111-5.454 22.947-14.039 30.189l-0.059 0.049c-35.759 29.815-76.011 66.837-114.018 105.353 39.979 39.228 149.897 157.581 186.291 304.209h114.607c0.010 0 0.022 0 0.034 0 21.731 0 39.347 17.616 39.347 39.347 0 0.012 0 0.024 0 0.036v-0.002c0 0.011 0 0.025 0 0.038 0 21.731-17.616 39.347-39.347 39.347-0.012 0-0.024 0-0.036 0h0.002zM720.896 234.402l62.938 161.911 65.067-161.911h-128zM1016.674 28.339l-196.919 489.788c-5.993 14.596-20.093 24.688-36.552 24.695h-0.236c-16.529-0.097-30.635-10.369-36.378-24.864l-0.093-0.266-190.345-489.783c-7.876-20.284 2.167-43.127 22.451-50.965 4.184-1.693 9.036-2.675 14.118-2.675 0.048 0 0.096 0 0.144 0h-0.007c16.608 0.006 30.814 10.282 36.613 24.822l0.094 0.266 60.732 156.275h190.306l62.976-156.71c8.115-20.203 31.036-29.815 51.243-21.82 20.203 8.115 29.969 31.036 21.854 51.243z" />
<glyph unicode="&#xe925;" glyph-name="laptopAndMobile" d="M866.59 107.802h0.001c14.776 0.007 26.753 11.984 26.76 26.761 0 14.771-11.994 26.761-26.761 26.761-14.771 0-26.761-11.994-26.761-26.761v-0.001c0.007-14.776 11.984-26.753 26.761-26.76zM971.546 544.154c28.983 0 52.454-23.471 52.454-52.454v-367.322c0-28.983-23.471-52.412-52.454-52.412h-209.916c-28.979 0-52.454 23.424-52.454 52.412v367.322c0 28.983 23.475 52.454 52.454 52.454h209.916zM684.881 511.548v-222.229h-577.331c-20.928 0-38.059 17.084-38.059 38.012v423.991c0 20.928 17.131 38.012 38.059 38.012h701.73c20.928 0 38.012-17.084 38.012-38.012v-184.218h-106.854c-30.694 0-55.556-24.862-55.556-55.552zM684.881 122.675c0-2.914 1.203-5.419 1.664-8.239h-610.94c-41.574-0.004-75.605 34.027-75.605 75.601v49.719c0 0.003 0 0.006 0 0.009 0 1.234 0.988 2.237 2.216 2.261h682.669v-119.356z" />
<glyph unicode="&#xe926;" glyph-name="layer" d="M504.687 874.645l504.678-219.426-504.683-219.43-504.683 219.43 504.687 219.426zM504.687 361.754l355.861 154.722 148.821-64.708-504.683-219.426-504.687 219.426 148.821 64.708 355.866-154.722zM504.687 159.177l355.861 154.722 148.821-64.704-504.683-219.43-504.687 219.43 148.821 64.704 355.866-154.722z" />
<glyph unicode="&#xe927;" glyph-name="listView" d="M128 768h768c35.345 0 64-28.655 64-64s-28.655-64-64-64h-768c-35.345 0-64 28.655-64 64s28.655 64 64 64zM128 512h768c35.345 0 64-28.655 64-64s-28.655-64-64-64h-768c-35.345 0-64 28.655-64 64s28.655 64 64 64zM128 256h768c35.345 0 64-28.655 64-64s-28.655-64-64-64h-768c-35.345 0-64 28.655-64 64s28.655 64 64 64z" />
<glyph unicode="&#xe928;" glyph-name="location" d="M493.7 448c-80.806 0-146.295 65.536-146.295 146.3 0 80.806 65.493 146.295 146.295 146.295 80.764 0 146.3-65.493 146.3-146.291 0-80.768-65.536-146.304-146.3-146.304zM493.7 960c-201.988 0-365.7-163.708-365.7-365.7 0-365.705 365.7-658.3 365.7-658.3s365.705 292.595 365.705 658.3c0 201.988-163.712 365.7-365.709 365.7z" />
<glyph unicode="&#xe929;" glyph-name="lock" d="M743.633 594.253h-438.852v73.195c0 121.143 98.261 219.358 219.405 219.358 121.186 0 219.447-98.214 219.447-219.358v-73.195zM597.333 228.553c0-40.38-32.725-73.105-73.148-73.105-40.384 0-73.105 32.725-73.105 73.105v73.148c0 40.384 32.725 73.105 73.105 73.105 40.422 0 73.148-32.725 73.148-73.105v-73.148zM889.929 594.253h-73.148v73.195c0 161.523-130.987 292.553-292.595 292.553-161.57 0-292.553-131.029-292.553-292.553v-73.195h-73.152c-40.38 0-73.148-32.725-73.148-73.148v-512c0-40.38 32.768-73.105 73.148-73.105h731.447c40.384 0 73.152 32.725 73.152 73.105v512c0 40.427-32.768 73.148-73.152 73.148z" />
<glyph unicode="&#xe92a;" glyph-name="logistics" d="M854.464 585.126c3.516 1.55 7.615 2.452 11.924 2.452 12.377 0 23.015-7.44 27.688-18.091l0.076-0.194 52.096-121.327c1.553-3.517 2.457-7.618 2.457-11.93 0-12.388-7.461-23.033-18.134-27.687l-0.195-0.076-252.851-108.574c-15.309-6.549-33.097 0.521-39.689 15.834l-52.096 121.37c-1.551 3.517-2.454 7.618-2.454 11.93 0 12.376 7.439 23.014 18.089 27.687l0.194 0.076 252.894 108.531zM540.011 508.676c6.724-15.701-0.563-33.92-16.269-40.687l-119.979-51.49c-15.701-6.767-33.877 0.521-40.644 16.265l-97.95 228.169c-1.592 3.606-2.519 7.812-2.519 12.234 0 12.685 7.627 23.589 18.546 28.376l0.199 0.078 119.979 51.49c3.604 1.593 7.807 2.52 12.226 2.52 12.677 0 23.573-7.629 28.345-18.547l0.078-0.199 97.988-228.207zM628.89 744.205c3.522 1.551 7.627 2.453 11.944 2.453 12.406 0 23.071-7.456 27.758-18.131l0.076-0.194 52.053-121.199c1.545-3.519 2.444-7.621 2.444-11.934 0-12.43-7.471-23.116-18.168-27.811l-0.195-0.076-98.513-42.291c-3.522-1.551-7.627-2.453-11.944-2.453-12.406 0-23.071 7.456-27.758 18.131l-0.076 0.194-52.053 121.199c-6.592 15.403 0.525 33.229 15.923 39.778l98.509 42.334zM610.274 142.933c-8.137 3.529-14.433 10.022-17.621 18.082l-0.077 0.222c-0.404 1.008-1.114 3.189-1.78 5.39l-0.302 1.164c-16.439 38.519-47.369 68.668-86.839 84.369-39.343 15.787-82.547 15.27-121.587-1.562-0.218-0.346-2.082-1.387-4.122-2.347-7.979-3.597-17.092-3.942-25.203-0.691-8.216 3.21-14.663 9.431-18.095 17.272l-0.081 0.208-229.419 534.323-59.776-25.634c-16.529-7.070-35.657 0.521-42.726 17.045-1.668 3.788-2.638 8.203-2.638 12.846 0 13.334 8.007 24.798 19.475 29.845l0.209 0.082 89.707 38.473c3.778 1.671 8.184 2.644 12.817 2.644 4.352 0 8.504-0.859 12.295-2.415l-0.216 0.078c8.040-3.28 14.344-9.429 17.748-17.144l0.082-0.209 229.811-535.322c47.761 13.969 98.731 11.712 145.877-7.027 47.761-19.085 86.669-53.137 111.616-97.25l339.209 145.66c3.773 1.654 8.171 2.617 12.794 2.617 13.342 0 24.811-8.019 29.851-19.5l0.082-0.209c1.662-3.78 2.629-8.186 2.629-12.818 0-13.327-8.005-24.785-19.469-29.826l-0.209-0.082-368.533-158.195c-3.787-1.662-8.2-2.634-12.838-2.645h-0.004c-4.574 0.013-8.925 0.953-12.879 2.642l0.216-0.082zM543.727 141.649c23.898-55.697-1.869-120.243-57.566-144.188-55.693-23.902-120.282 1.865-144.183 57.557-23.902 55.701 1.865 120.247 57.557 144.192 55.701 23.898 120.247-1.869 144.192-57.562z" />
<glyph unicode="&#xe92b;" glyph-name="logisticUp" d="M875.793 51.806c-0.005-13.55-10.991-24.533-24.542-24.533-0.017 0-0.033 0-0.050 0h-678.457c-13.549 0-24.533 10.984-24.533 24.533v0 41.6c0 0.001 0 0.003 0 0.004 0 13.549 10.984 24.533 24.533 24.533h678.46c0.014 0 0.030 0 0.047 0 13.551 0 24.537-10.983 24.542-24.533v0-41.604zM271.633 754.061l64.111 79.104 128.073-158.204h-74.547v-480.043h-107.102v480.043h-74.594l64.064 79.104zM624.196 754.061l64.060 79.104 128.124-158.204h-74.547v-480.043h-107.149v480.043h-74.556l64.064 79.104zM986.999 960h-949.999c-20.433-0.005-36.996-16.568-37.001-37v0-949.948c0-20.48 16.572-37.052 37.001-37.052h949.999c20.429 0 37.001 16.572 37.001 37.052v949.948c-0.005 20.433-16.568 36.996-37 37.001v0z" />
<glyph unicode="&#xe92c;" glyph-name="message" d="M0.013 606.571l511.97-256.004 512.017 256.004v-447.979c0-35.375-28.659-63.991-63.991-63.991h-896.004c-35.328 0-63.991 28.617-63.991 63.991v447.979zM960 789.333c35.375 0 63.991-28.659 63.991-63.991v-63.991l-511.97-256.004-512.021 256.004v63.991c0 35.328 28.659 63.991 63.991 63.991h896.004z" />
<glyph unicode="&#xe92d;" glyph-name="mic" d="M524.651 289.801c-83.371 0-151.595 68.267-151.595 151.637v366.976c0 83.371 68.224 151.595 151.595 151.595s151.595-68.224 151.595-151.595v-366.976c0-83.371-68.224-151.637-151.595-151.637zM771.985 638.259c11.776 0 21.333-9.557 21.333-21.333v-175.488c0-140.928-109.141-256.683-247.296-267.605v-173.824h119.851c11.819 0 21.333-9.557 21.333-21.333s-9.515-21.333-21.333-21.333h-282.411c-11.819 0-21.333 9.557-21.333 21.333s9.515 21.333 21.333 21.333h119.893v173.824c-138.197 10.923-247.339 126.677-247.339 267.605v175.488c0 11.776 9.515 21.333 21.333 21.333 11.776 0 21.333-9.557 21.333-21.333v-175.488c0-124.629 101.376-226.005 226.005-226.005 124.587 0 225.963 101.376 225.963 226.005v175.488c0 11.776 9.557 21.333 21.333 21.333z" />
<glyph unicode="&#xe92e;" glyph-name="microscope" d="M154.94 419.349c-19.413 12.501-25.003 38.485-12.501 58.027 12.629 19.371 38.613 25.045 57.984 12.501l217.728-140.373c19.499-12.501 25.045-38.485 12.501-57.984-8.021-12.416-21.504-19.2-35.371-19.2-8.408 0.002-16.232 2.501-22.771 6.796l0.157-0.097-217.728 140.331zM924.275 146.85c46.336 0 83.925-37.675 83.925-84.096 0-46.336-37.589-84.053-83.925-84.053h-797.696c-46.336 0-83.925 37.717-83.925 84.053s37.589 84.096 83.925 84.096h444.245c84.011 33.195 143.403 116.309 143.403 212.437 0 109.525-77.355 201.131-180.224 223.616l-119.509-185.344-168.747 108.843 262.869 407.595c30.037 46.635 92.16 60.032 138.795 29.952 22.357-14.379 38.059-37.12 43.648-63.147 1.438-6.371 2.262-13.688 2.262-21.197 0-20.18-5.952-38.97-16.195-54.711l0.237 0.388-60.629-93.867c142.635-53.504 244.437-191.147 244.437-352.128 0-78.848-24.448-152.192-65.963-212.437h129.067z" />
<glyph unicode="&#xe92f;" glyph-name="money" d="M722.53 649.092c-80.64-6.4-152.32-45.227-201.813-103.253h-309.333c-37.547 0-68.693 31.147-68.693 68.693 0 37.973 31.147 69.12 68.693 69.12h452.267c25.173 0 47.36-14.080 58.88-34.56zM512.179 535.177c-31.147-39.253-52.48-86.187-60.16-137.813h-301.653c-37.547 0-68.693 31.147-68.693 68.693 0 37.973 31.147 69.12 68.693 69.12h361.813zM466.948 248.883h-316.587c-37.547 0-68.693 31.147-68.693 68.693 0 37.973 31.147 68.693 68.693 68.693h299.947c-1.28-11.52-2.133-23.040-2.133-34.987 0-35.84 6.4-70.4 18.773-102.4zM585.553 100.403h-435.2c-37.547 0-68.693 31.147-68.693 68.693 0 37.973 31.147 68.693 68.693 68.693h320.427c23.467-56.747 63.573-104.533 114.773-137.387zM589.594 763.217c0-37.717-31.061-68.779-68.779-68.779h-452.053c-37.717 0-68.779 31.061-68.779 68.779s31.061 68.779 68.779 68.779h452.053c37.717 0 68.779-31.061 68.779-68.779zM825.344 258.505c-10.317-12.591-23.723-21.056-39.488-25.344-6.839-1.877-9.924-5.495-9.579-12.617 0.256-6.955-0.068-14.003-0.068-20.983 0-6.238-3.157-9.579-9.323-9.715-7.509-0.213-15.095-0.213-22.609-0.073-6.63 0.141-9.715 3.895-9.762 10.321-0.094 5.099-0.094 10.27-0.137 15.373-0.141 11.247-0.491 11.712-11.341 13.474-13.888 2.202-27.503 5.355-40.235 11.52-9.993 4.894-11.059 7.377-8.183 17.835 2.159 7.791 4.292 15.561 6.699 23.283 2.833 8.905 5.244 10.039 13.5 5.747 14.076-7.305 29.030-11.383 44.638-13.333 10.133-1.276 19.989-0.277 29.312 3.827 17.434 7.629 20.1 27.827 5.423 39.953-4.962 4.151-10.667 7.168-16.627 9.788-15.305 6.771-31.258 11.87-45.653 20.523-23.398 14.003-38.289 33.25-36.548 61.747 1.95 32.188 20.173 52.292 49.694 63.027 12.194 4.429 12.267 4.224 12.335 16.973 0.047 4.361-0.068 8.653 0.047 12.941 0.277 9.579 1.903 11.268 11.409 11.524 2.944 0.068 5.914 0 8.858 0 20.382 0 20.382 0 20.429-20.309 0.094-14.426 0.094-14.498 14.421-16.7 11.017-1.737 21.474-4.962 31.654-9.459 5.564-2.483 7.723-6.379 5.961-12.267-2.598-8.789-4.941-17.647-7.77-26.342-2.688-8.256-5.291-9.463-13.218-5.632-15.885 7.625-32.58 10.85-50.133 9.92-4.565-0.277-9.067-0.879-13.355-2.756-15.147-6.635-17.621-23.398-4.685-33.719 6.562-5.239 14.007-8.994 21.773-12.22 13.427-5.542 26.965-10.923 39.701-17.971 40.649-22.443 51.567-73.485 22.861-108.335zM757.333 618.667c-147.268 0-266.667-119.398-266.667-266.667s119.398-266.667 266.667-266.667 266.667 119.398 266.667 266.667-119.398 266.667-266.667 266.667z" />
<glyph unicode="&#xe930;" glyph-name="movie" d="M607.987 532.979c-88.55 0-160.367 71.765-160.367 160.367 0 88.55 71.817 160.32 160.367 160.32 88.555 0 160.367-71.765 160.367-160.32 0-88.602-71.765-160.367-160.367-160.367zM191.979 533.333c-70.656 0-128 57.301-128 128s57.344 128 128 128c70.699 0 128-57.301 128-128s-57.301-128-128-128zM959.979 533.333l-191.979-128c0 38.869-17.677 73.195-45.013 96.7 65.050 39.223 108.992 109.794 108.992 191.313 0 123.678-100.267 223.987-223.991 223.987-123.678 0-223.987-100.309-223.987-223.987 0-62.775 25.954-119.364 67.541-160.013h-117.363c30.635 33.971 49.822 78.579 49.822 128 0 106.052-85.973 191.979-192.021 191.979-106.052 0-191.979-85.931-191.979-191.979 0-57.877 26.133-109.124 66.603-144.299-39.488-21.854-66.603-63.39-66.603-111.701v-256c0-70.699 57.301-128 128-128h512c70.699 0 128 57.301 128 128l191.979-128c35.392 0 64.021 28.629 64.021 63.979v384c0 35.349-28.629 64.021-64.021 64.021z" />
<glyph unicode="&#xe931;" glyph-name="pencil" d="M223.488 16.512l-0.759-0.755c-2.861-2.843-6.321-5.086-10.174-6.523l-0.198-0.065-174.391-62.955c-22.528-8.192-44.39 13.666-36.198 36.194l62.959 174.349c1.488 4.079 3.751 7.559 6.633 10.417l0.715 0.715c5.115 5.134 12.192 8.311 20.011 8.311s14.895-3.177 20.010-8.31l111.395-111.357c5.116-5.124 8.279-12.198 8.279-20.011s-3.164-14.887-8.28-20.011v0zM907.806 700.86l-635.631-635.635c-3.604-3.61-8.587-5.843-14.091-5.843s-10.486 2.233-14.090 5.842v0l-123.238 123.234c-3.611 3.605-5.845 8.588-5.845 14.093s2.234 10.488 5.845 14.093v0l635.682 635.593c3.596 3.61 8.572 5.844 14.069 5.844s10.473-2.234 14.069-5.844l123.235-123.192c3.611-3.605 5.845-8.588 5.845-14.093s-2.234-10.488-5.845-14.093v0zM1009.724 802.778l-59.127-59.127c-3.604-3.61-8.587-5.843-14.091-5.843s-10.486 2.233-14.090 5.842v0l-123.234 123.191c-3.61 3.604-5.843 8.587-5.843 14.091s2.233 10.486 5.842 14.090v0l59.127 59.132c3.604 3.61 8.587 5.843 14.091 5.843s10.486-2.233 14.090-5.842v0l123.238-123.191c3.59-3.613 5.809-8.593 5.809-14.091s-2.219-10.477-5.81-14.092l0.001 0.001z" />
<glyph unicode="&#xe932;" glyph-name="people" d="M648.141 653.171c0-75.179-60.971-136.107-136.149-136.107s-136.149 60.928-136.149 136.107c0 75.221 60.971 136.149 136.149 136.149s136.149-60.928 136.149-136.149zM942.054 569.463c0-58.837-47.701-106.539-106.539-106.539s-106.581 47.701-106.581 106.539c0 58.837 47.744 106.539 106.581 106.539s106.539-47.701 106.539-106.539zM295.036 569.463c0-58.837-47.701-106.539-106.539-106.539s-106.581 47.701-106.581 106.539c0 58.837 47.744 106.539 106.581 106.539s106.539-47.701 106.539-106.539zM242.829 286.754v-120.789h-242.816v105.643c0 82.133 70.272 148.736 156.928 148.736h63.104c24.064 0 46.763-5.291 67.157-14.464-27.691-32.597-44.373-73.984-44.373-119.125zM752.849 137.63h-481.707v134.955c0 104.96 89.771 190.037 200.533 190.037h80.64c110.763 0 200.533-85.077 200.533-190.037v-134.955zM867.076 420.339c86.656 0 156.928-66.603 156.928-148.736v-105.643h-242.816v120.789c0 45.141-16.683 86.528-44.416 119.125 19.745 9.131 42.849 14.459 67.198 14.464h63.106z" />
<glyph unicode="&#xe933;" glyph-name="people2" d="M158.903 395.025c-55.693 0-100.89 45.197-100.89 100.885s45.197 100.885 100.89 100.885c55.689 0 100.885-45.197 100.885-100.885s-45.197-100.885-100.885-100.885zM885.282 395.025c-55.693 0-100.89 45.197-100.89 100.885s45.197 100.885 100.89 100.885c55.689 0 100.885-45.197 100.885-100.885s-45.197-100.885-100.885-100.885zM522.082 700.198h158.899c0-120.866-11.349-204.297-90.799-224.725v-183.868h-136.196v183.868c-79.445 20.429-90.799 103.859-90.799 224.725h158.895zM522.082 758.225c-55.689 0-100.885 45.15-100.885 100.89 0 55.689 45.197 100.885 100.885 100.885 55.693 0 100.89-45.197 100.89-100.885 0-55.74-45.197-100.89-100.89-100.89zM865.105 354.658h158.895c0-120.862-11.349-204.292-90.795-224.725v-183.863h-136.201v183.863c-79.445 20.433-90.795 103.863-90.795 224.725h158.891zM158.895 354.658h158.899c0-120.862-11.349-204.292-90.799-224.725v-183.863h-136.196v183.863c-79.45 20.433-90.799 103.863-90.799 224.725h158.895z" />
<glyph unicode="&#xe934;" glyph-name="person" d="M716.629 756.851c0-112.196-90.961-203.153-203.153-203.153s-203.196 90.957-203.196 203.153c0 112.192 90.999 203.149 203.196 203.149 112.192 0 203.149-90.957 203.149-203.149zM902.682-64h-774.682v217.045c0 168.841 144.367 305.685 322.496 305.685h129.694c178.133 0 322.496-136.845 322.496-305.681v-217.050z" />
<glyph unicode="&#xe935;" glyph-name="phone" d="M980.881 177.054c2.001-15.266-2.65-28.489-13.914-39.791l-132.151-131.127c-5.956-6.656-13.751-12.245-23.339-16.939-9.634-4.608-19.063-7.59-28.331-8.896-0.649 0-2.645-0.162-5.956-0.529-3.302-0.329-7.629-0.491-12.937-0.491-12.57 0-32.934 2.163-61.094 6.485-28.16 4.288-62.605 14.899-103.334 31.795-40.772 16.896-86.967 42.24-138.637 75.989-51.669 33.792-106.679 80.158-164.958 139.127-46.366 45.709-84.809 89.459-115.294 131.17-30.447 41.749-54.972 80.316-73.502 115.78-18.569 35.426-32.486 67.541-41.749 96.358-9.267 28.813-15.552 53.666-18.897 74.56-3.307 20.855-4.608 37.261-3.959 49.178 0.653 11.959 1.024 18.573 1.024 19.878 1.301 9.259 4.284 18.688 8.934 28.279 4.612 9.634 10.244 17.429 16.853 23.386l132.19 132.19c9.267 9.225 19.874 13.875 31.795 13.875 8.61 0 16.239-2.487 22.852-7.467 6.656-4.941 12.245-11.063 16.896-18.368l106.313-201.728c5.999-10.573 7.637-22.161 4.979-34.773-2.65-12.612-8.282-23.142-16.896-31.791l-48.687-48.691c-1.348-1.344-2.487-3.507-3.469-6.447-1.024-2.978-1.51-5.508-1.51-7.467 2.654-13.879 8.61-29.794 17.92-47.71 7.915-15.876 20.198-35.26 36.727-58.116 16.567-22.852 40.077-49.178 70.562-79.010 29.794-30.447 56.32-54.157 79.501-71.053 23.181-16.853 42.569-29.303 58.155-37.222 15.552-7.957 27.469-12.813 35.755-14.447l12.403-2.449c1.31 0 3.511 0.452 6.451 1.472 3.021 0.981 5.141 2.163 6.485 3.469l56.649 57.664c11.917 10.573 25.835 15.876 41.711 15.876 11.264 0 20.203-1.958 26.812-5.956h1.024l191.77-113.254c13.918-8.653 22.204-19.588 24.853-32.811z" />
<glyph unicode="&#xe936;" glyph-name="pipette" d="M182.793 190.891c-23.791-23.791-25.365-60.727-3.52-82.573 21.815-21.815 58.778-20.267 82.569 3.52l318.208 318.212-79.044 79.049-318.212-318.208zM685.619 433.702c-14.204-14.208-36.309-15.177-49.374-2.108l-1.135 1.135-355.029-355.029c-29.931-29.931-72.388-38.665-107.102-25.421l-73.31-73.152c-7.462-7.462-16.998-11.465-26.359-11.921-9.412-0.401-18.615 2.833-25.468 9.685-13.726 13.726-12.71 36.928 2.21 51.853l73.207 73.203c-13.329 34.679-4.565 77.227 25.391 107.179l355.029 355.029-1.156 1.161c-13.043 13.043-12.1 35.174 2.103 49.378l22.528 22.528c14.204 14.204 36.331 15.147 49.374 2.103l266.906 266.901c40.226 40.179 102.758 42.846 139.674 5.931 18.445-18.445 27.029-43.328 25.95-68.591-1.075-25.267-11.819-50.974-31.902-71.061l-266.906-266.901c13.069-13.069 12.126-35.2-2.108-49.434l-22.524-22.468z" />
<glyph unicode="&#xe937;" glyph-name="plane" d="M538.436 596.386l-300.954 124.578 165.069 68.369 297.237-122.743 200.708 87.309c45.547 18.901 97.792-2.778 116.693-48.324 18.854-45.547-2.778-97.792-48.375-116.693l-209.719-78.093-178.611-357.269-178.611-89.259 133.961 357.175-334.895-133.909-200.939 200.887 156.288 66.978 133.956-66.978 248.192 107.972z" />
<glyph unicode="&#xe938;" glyph-name="posting" d="M605.116 796.117c0-43.379-135.497-78.524-302.549-78.524-167.095 0-302.545 35.145-302.545 78.524s135.45 78.519 302.549 78.519c167.049 0 302.545-35.14 302.545-78.519zM302.545 559.915c167.1 0 302.549 35.14 302.549 78.519v-110.498c0-43.426-135.45-78.571-302.549-78.571s-302.545 35.145-302.545 78.571v110.498c0-43.379 135.445-78.519 302.549-78.519zM302.545 694.003c167.1 0 302.549 35.191 302.549 78.524v-110.498c0-43.379-135.45-78.571-302.549-78.571s-302.545 35.191-302.545 78.571v110.494c0-43.332 135.445-78.524 302.549-78.524zM692.365 105.707c167.095 0 302.545 35.145 302.545 78.524v-110.498c0-43.426-135.45-78.571-302.549-78.571-167.095 0-302.541 35.145-302.541 78.571v110.498c0-43.379 135.445-78.524 302.545-78.524zM692.365 239.799c167.095 0 302.545 35.191 302.545 78.524v-110.498c0-43.383-135.45-78.571-302.549-78.571-167.095 0-302.541 35.187-302.541 78.571v110.498c0-43.332 135.445-78.524 302.545-78.524zM368.32 358.187c0 0.141 0-16.337-0.047-41.003-19.474-1.218-42.232-1.912-65.153-1.912-0.2 0-0.401 0-0.601 0h0.031c-167.095 0-302.545 35.145-302.545 78.524v110.545c0-43.379 135.45-78.524 302.549-78.524 167.095 0 302.541 35.145 302.541 78.524v-67.166c-134.421-9.634-233.702-41.19-236.774-78.989zM368.226 293.598c-0.047-32.627-0.094-72.939-0.141-110.549-19.565-1.202-42.458-1.893-65.511-1.903h-0.025c-167.095 0-302.545 35.187-302.545 78.519v110.549c0-43.337 135.45-78.524 302.549-78.524 22.571 0 44.493 0.695 65.673 1.907zM994.931 341.918c0-43.383-135.492-78.524-302.545-78.524-167.095 0-302.545 35.14-302.545 78.524 0 43.379 135.45 78.519 302.549 78.519 167.049 0 302.541-35.14 302.541-78.519zM367.979 69.888c0-6.985 3.678-13.781 9.916-20.297-24.111-1.626-49.293-2.56-75.358-2.56-167.1 0-302.549 35.191-302.549 78.524v110.549c0-43.337 135.45-78.528 302.549-78.528 22.571 0 44.403 0.7 65.536 1.911-0.047-49.899-0.094-89.6-0.094-89.6z" />
<glyph unicode="&#xe939;" glyph-name="pound" d="M678.199 207.049h-332.356v58.948c38.601 15.983 80.853 57.566 80.853 107.294 0 10.112 0 19.635-1.382 29.030h-71.454v75.819h58.411c-3.827 18.3-5.922 38.827-5.922 59.17 0 91.093 66.295 151.642 164.732 151.642 39.445 0 69.188-8.725 85.393-17.587l-17.587-83.831c-14.601 8.013-34.948 13.222-61.931 13.222-51.823 0-67.806-32.858-67.806-68.523 0-19.098 2.94-35.793 7.3-54.093h99.819v-75.819h-90.423c0.11-2.16 0.172-4.689 0.172-7.234 0-15.845-2.423-31.125-6.918-45.488l0.291 1.078c-6.588-18.257-18.253-36.51-35.797-51.827v-1.557h194.607v-90.244zM512 960c-282.756 0-512-229.244-512-512s229.244-512 512-512c282.803 0 512 229.244 512 512s-229.197 512-512 512z" />
<glyph unicode="&#xe93a;" glyph-name="puzzle" d="M787.674 466.347c22.539 13.233 49.641 21.048 78.568 21.048 0.079 0 0.158 0 0.237 0h-0.012c86.993 0 157.534-70.541 157.534-157.534s-70.541-157.534-157.534-157.534c-28.732 0-55.612 7.68-78.793 21.047v-200.439c0-31.428-25.459-56.934-56.887-56.934h-673.946c-31.381 0-56.841 25.506-56.841 56.934v185.557c13.108-3.913 28.171-6.165 43.759-6.165v0c86.989 0 157.534 70.541 157.534 157.534s-70.545 157.534-157.534 157.534c-15.219 0-29.867-2.133-43.759-6.161v185.6c0 31.433 25.459 56.887 56.841 56.887h200.533c-13.261 22.519-21.095 49.609-21.095 78.529 0 0.093 0 0.185 0 0.277v-0.014c0 86.993 70.537 157.487 157.534 157.487 87.040 0 157.581-70.494 157.581-157.487 0-0.075 0-0.164 0-0.253 0-28.924-7.833-56.018-21.495-79.276l0.4 0.737h200.486c31.428 0 56.887-25.455 56.887-56.887v-200.486z" />
<glyph unicode="&#xe93b;" glyph-name="reaction" d="M156.698 189.239c3.081-8.199 4.864-17.675 4.864-27.568 0-0.028 0-0.056 0-0.085v0.004c0-44.591-36.19-80.781-80.781-80.781s-80.781 36.19-80.781 80.781c0 44.587 36.19 80.781 80.781 80.781 0.030 0 0.066 0 0.101 0 20.309 0 38.862-7.524 53.021-19.936l-0.092 0.079 217.195 147.819c0.361 0.251 0.803 0.53 1.255 0.793l0.097 0.052c-8.616 17.643-13.653 38.389-13.653 60.311 0 0.074 0 0.149 0 0.223v-0.011c0 25.212 6.63 48.87 18.249 69.325l-207.578 133.542c-14.322-13.326-33.589-21.504-54.766-21.504-0.033 0-0.067 0-0.1 0h0.005c-44.595 0-80.785 36.194-80.785 80.781 0 44.591 36.19 80.781 80.781 80.781 44.587 0 80.781-36.19 80.781-80.781 0-8.841-1.425-17.353-4.053-25.318l207.957-133.756c0.933-0.608 1.744-1.23 2.503-1.908l-0.020 0.018c25.194 24.389 59.574 39.42 97.464 39.42 0.070 0 0.14 0 0.211 0h-0.011c0.065 0 0.143 0 0.22 0 28.83 0 55.624-8.718 77.89-23.661l-0.503 0.318 150.938 232.99c-13.184 14.288-21.269 33.455-21.269 54.511 0 0.033 0 0.066 0 0.099v-0.005c0 44.591 36.19 80.781 80.785 80.781 44.591 0 80.781-36.19 80.781-80.781s-36.19-80.781-80.781-80.781c-0.024 0-0.052 0-0.080 0-9.136 0-17.917 1.52-26.105 4.32l0.567-0.169-151.855-234.368c-0.86-1.317-1.804-2.463-2.859-3.495l-0.004-0.004c16.236-19.199 27.456-43.13 31.352-69.448l0.093-0.764c0.421 0.032 0.914 0.050 1.41 0.051h245.067c8.977 34.829 40.619 60.587 78.234 60.587 44.629 0 80.781-36.19 80.781-80.781s-36.151-80.781-80.781-80.781c-37.619 0-69.257 25.758-78.234 60.587h-245.065c-0.008 0-0.018 0-0.027 0-0.487 0-0.971 0.017-1.45 0.051l0.064-0.004c-6.929-48.299-38.4-88.657-81.365-108.058l84.105-153.6c5.949 1.567 12.778 2.466 19.817 2.466 0.019 0 0.037 0 0.056 0h-0.003c44.591 0 80.781-36.19 80.781-80.781s-36.19-80.781-80.781-80.781c-44.587 0-80.781 36.19-80.781 80.781 0 0.022 0 0.049 0 0.075 0 23.194 9.803 44.099 25.492 58.798l0.044 0.041-85.628 156.39c-0.887 1.577-1.594 3.404-2.023 5.336l-0.025 0.134c-5.655-0.799-12.186-1.254-18.824-1.254-0.012 0-0.024 0-0.037 0h0.002c-41.515 0-78.827 17.975-104.572 46.575-0.28-0.219-0.614-0.463-0.955-0.697l-0.069-0.045-217.045-147.695z" />
<glyph unicode="&#xe93c;" glyph-name="repost" d="M729.792 826.095l-269.265 89.417c-25.506 8.516-50.5-14.153-44.587-40.354l29.926-132.378c3.349-14.754-3.772-29.973-16.896-37.517-424.448-243.29-448.329-556.638-421.333-729.6 5.542-35.746 55.578-38.912 66.748-4.467 91.605 282.018 288.585 427.332 381.581 474.253 20.109 10.193 44.173-1.442 49.109-23.458l23.642-105.566c5.726-25.694 36.958-35.797 56.644-18.291l427.008 379.533c19.925 17.638 13.175 50.219-12.053 58.598l-270.524 89.83z" />
<glyph unicode="&#xe93d;" glyph-name="roundFlask" d="M432.094 554.978l15.403 3.968v348.843h-20.523c-3.072 0-5.547 2.475-5.547 5.547 0 0.013 0 0.028 0 0.043 0 3.063 2.483 5.547 5.547 5.547 0 0 0 0 0 0h156.629c2.982-0.12 5.354-2.567 5.354-5.568s-2.372-5.448-5.343-5.568h-20.534v-348.843l15.403-3.968c125.312-32.213 213.333-142.592 219.221-270.933-19.883-6.869-54.315-15.445-105.813-17.536-50.987-2.048-101.248 26.795-187.307 26.795-70.997 0-127.531-28.843-173.696-28.843-57.259 0-96.213 10.624-118.101 18.944 5.632 128.597 93.781 239.317 219.307 271.573zM568.457 191.501c0.299 8.32 4.096 16.768 10.325 22.571 6.485 6.016 14.976 8.917 23.509 8.875 8.789-0.341 16.981-4.395 22.784-10.624 5.803-6.272 9.173-14.72 8.875-23.509-0.64-17.109-16.768-32.043-33.835-31.403-8.832 0.299-17.067 3.84-23.083 10.368-6.016 6.443-8.917 14.891-8.576 23.723zM422.409 149.986c21.333 19.84 54.741 18.56 74.539-2.816 19.797-21.333 18.56-54.699-2.773-74.539-21.376-19.797-54.741-18.517-74.539 2.859-19.84 21.333-18.603 54.699 2.773 74.496zM604.126 590.349v281.173c15.488 7.595 26.112 23.509 26.112 41.813 0 25.728-20.907 46.677-46.635 46.677h-156.629c-25.728 0-46.635-20.949-46.635-46.677 0-18.304 10.667-34.219 26.112-41.813v-281.173c-139.605-42.965-235.776-172.245-235.776-319.744 0-184.448 150.101-334.592 334.635-334.592 184.491 0 334.592 150.144 334.592 334.592 0 147.499-96.171 276.779-235.776 319.744z" />
<glyph unicode="&#xe93e;" glyph-name="settings" d="M512 260.117c-103.735 0-187.836 84.105-187.836 187.883 0 103.735 84.1 187.793 187.836 187.793 103.778 0 187.883-84.058 187.883-187.793 0-103.778-84.105-187.883-187.883-187.883zM988.382 523.866l-71.322 23.774c-22.754 7.569-40.96 24.708-50.133 46.835-0.085 0.226-0.179 0.491-0.269 0.67-9.259 22.217-8.546 47.236 2.227 68.74l33.613 67.273c3.466 6.795 5.497 14.82 5.497 23.32 0 14.395-5.825 27.43-15.247 36.875l0.001-0.001-37.397 37.355c-9.424 9.429-22.447 15.261-36.831 15.261-8.5 0-16.524-2.036-23.612-5.648l0.295 0.137-67.273-33.613c-21.504-10.773-46.528-11.443-68.745-2.185-0.222 0.090-0.444 0.137-0.666 0.226-22.113 9.285-39.025 27.244-46.708 49.505l-0.175 0.582-23.731 71.369c-7.126 20.886-26.569 35.643-49.461 35.661h-52.892c-22.443 0-42.342-14.379-49.421-35.661l-23.774-71.369c-7.856-22.844-24.769-40.805-46.338-49.887l-0.544-0.203c-0.179-0.085-0.444-0.128-0.666-0.222-22.174-9.259-47.241-8.589-68.745 2.185l-67.273 33.613c-20.032 10.061-44.254 6.101-60.147-9.749l-37.397-37.355c-9.421-9.444-15.246-22.479-15.246-36.874 0-8.5 2.031-16.525 5.634-23.617l-0.137 0.297 33.613-67.273c10.773-21.504 11.486-46.524 2.227-68.74-0.090-0.179-0.179-0.444-0.269-0.67-9.173-22.127-27.379-39.266-50.091-46.835l-71.364-23.774c-20.873-7.116-35.618-26.551-35.618-49.431 0-0.012 0-0.023 0-0.035v0.002-52.847c0-22.443 14.336-42.342 35.618-49.421l71.369-23.817c22.707-7.569 40.917-24.713 50.086-46.839l0.269-0.666c9.259-22.217 8.546-47.241-2.227-68.787l-33.613-67.273c-3.466-6.785-5.496-14.799-5.496-23.287 0-14.377 5.826-27.394 15.246-36.818l37.397-37.397c9.449-9.427 22.491-15.256 36.895-15.256 8.473 0 16.474 2.017 23.551 5.597l-0.299-0.137 67.273 33.66c21.504 10.731 46.528 11.443 68.745 2.227 0.285-0.122 0.504-0.227 0.718-0.341l-0.052 0.025c22.174-9.173 39.27-27.332 46.882-50.086l23.774-71.322c7.097-20.87 26.521-35.618 49.391-35.618 0.011 0 0.021 0 0.032 0h52.888c22.443 0 42.342 14.336 49.463 35.618l23.731 71.322c7.612 22.754 24.708 40.917 46.882 50.091 0.222 0.085 0.444 0.222 0.666 0.311 22.217 9.216 47.241 8.503 68.745-2.227l67.273-33.66c6.779-3.445 14.781-5.464 23.255-5.464 14.403 0 27.445 5.831 36.893 15.261l37.396 37.396c9.42 9.424 15.246 22.44 15.246 36.818 0 8.488-2.031 16.502-5.633 23.583l0.137-0.296-33.613 67.273c-10.773 21.547-11.486 46.571-2.227 68.787l0.269 0.666c9.173 22.127 27.379 39.27 50.133 46.839l71.322 23.817c20.87 7.097 35.618 26.521 35.618 49.391 0 0.011 0 0.021 0 0.032v-0.002 52.847c0 22.438-14.336 42.385-35.618 49.463z" />
<glyph unicode="&#xe93f;" glyph-name="share" d="M764.326 280.009c-43.319 0-82.372-16.512-112.627-42.91l-231.654 153.498c5.534 16.922 9.301 34.611 9.301 53.389 0 19.413-3.951 37.786-9.89 55.202l233.694 158.532c30.029-25.626 68.54-41.728 111.177-41.728 94.985 0 172.002 76.975 172.002 172.002 0 95.036-77.018 172.006-171.998 172.006-95.031 0-172.006-76.975-172.006-172.006 0-19.413 3.904-37.781 9.843-55.245l-233.651-158.541c-30.076 25.719-68.54 41.779-111.177 41.779-94.985 0.004-172.006-77.022-172.006-172.002 0-94.985 77.022-172.002 172.006-172.002 43.273 0 82.372 16.512 112.627 42.953l231.654-153.498c-5.534-16.917-9.301-34.654-9.301-53.431 0-94.985 76.975-172.006 172.006-172.006 94.985 0 172.002 77.022 172.002 172.006 0 95.027-77.018 172.002-172.002 172.002z" />
<glyph unicode="&#xe940;" glyph-name="add" d="M563.2 396.8h256c28.275 0 51.2 22.925 51.2 51.2s-22.925 51.2-51.2 51.2h-256v256c0 28.275-22.925 51.2-51.2 51.2s-51.2-22.925-51.2-51.2v-256h-256c-28.275 0-51.2-22.925-51.2-51.2s22.925-51.2 51.2-51.2h256v-256c0-28.275 22.925-51.2 51.2-51.2s51.2 22.925 51.2 51.2v256zM512-64c-282.769 0-512 229.231-512 512s229.231 512 512 512 512-229.231 512-512-229.231-512-512-512z" />
<glyph unicode="&#xe941;" glyph-name="arrowCheck" d="M415.625 340.719l368.35 349.235c20.523 19.456 52.924 18.594 72.38-1.929s18.594-52.924-1.929-72.38l-405.013-384c-20.331-19.273-52.373-18.633-71.915 1.438l-209.382 215.061c-19.725 20.262-19.294 52.676 0.969 72.405 20.262 19.725 52.676 19.29 72.401-0.973l174.14-178.859z" />
<glyph unicode="&#xe942;" glyph-name="arrowChevron" d="M512 99.925l278.801 185.869c23.526 15.689 55.313 9.327 70.997-14.199 15.689-23.526 9.331-55.317-14.199-70.997l-307.2-204.8c-7.98-5.386-17.815-8.598-28.399-8.598s-20.418 3.212-28.581 8.714l0.182-0.116-307.2 204.8c-23.531 15.68-29.888 47.471-14.204 70.997 15.689 23.526 47.475 29.888 71.002 14.199l278.801-185.865zM512 796.066l-278.801-185.869c-23.526-15.684-55.313-9.327-70.997 14.204-15.689 23.526-9.331 55.313 14.199 70.997l307.2 204.8c7.98 5.386 17.815 8.598 28.399 8.598s20.418-3.212 28.581-8.714l-0.182 0.116 307.2-204.8c23.531-15.684 29.888-47.471 14.204-70.997-15.689-23.531-47.475-29.888-71.002-14.204l-278.801 185.869z" />
<glyph unicode="&#xe943;" glyph-name="arrowDoubleLeft" d="M503.403 169.199c15.684-23.526 9.327-55.313-14.204-70.997-23.526-15.689-55.313-9.331-70.997 14.199l-204.8 307.2c-5.386 7.98-8.598 17.815-8.598 28.399s3.212 20.418 8.714 28.581l-0.116-0.182 204.8 307.2c15.684 23.531 47.471 29.888 70.997 14.204 23.531-15.689 29.888-47.475 14.204-71.002l-185.869-278.801 185.869-278.801zM810.603 169.199c15.684-23.526 9.327-55.313-14.204-70.997-23.526-15.689-55.313-9.331-70.997 14.199l-204.8 307.2c-5.386 7.98-8.598 17.815-8.598 28.399s3.212 20.418 8.714 28.581l-0.116-0.182 204.8 307.2c15.684 23.531 47.471 29.888 70.997 14.204 23.531-15.689 29.888-47.475 14.204-71.002l-185.869-278.801 185.869-278.801z" />
<glyph unicode="&#xe944;" glyph-name="arrowDoubleRight" d="M706.466 448l-185.869 278.801c-15.684 23.526-9.327 55.313 14.204 70.997 23.526 15.689 55.313 9.331 70.997-14.199l204.8-307.2c5.386-7.98 8.598-17.815 8.598-28.399s-3.212-20.418-8.714-28.581l0.116 0.182-204.8-307.2c-15.684-23.531-47.471-29.888-70.997-14.204-23.531 15.689-29.888 47.475-14.204 71.002l185.869 278.801zM213.397 726.801c-15.684 23.526-9.327 55.313 14.204 70.997 23.526 15.689 55.313 9.331 70.997-14.199l204.8-307.2c5.386-7.98 8.598-17.815 8.598-28.399s-3.212-20.418-8.714-28.581l0.116 0.182-204.8-307.2c-15.684-23.531-47.471-29.888-70.997-14.204-23.531 15.689-29.888 47.475-14.204 71.002l185.869 278.801-185.869 278.801z" />
<glyph unicode="&#xe945;" glyph-name="arrowDown" d="M790.801 593.003c23.526 15.684 55.313 9.327 70.997-14.204 15.689-23.526 9.331-55.313-14.199-70.997l-307.2-204.8c-7.98-5.386-17.815-8.598-28.399-8.598s-20.418 3.212-28.581 8.714l0.182-0.116-307.2 204.8c-23.531 15.684-29.888 47.471-14.204 70.997 15.689 23.531 47.475 29.888 71.002 14.204l278.801-185.869 278.801 185.869z" />
<glyph unicode="&#xe946;" glyph-name="arrowLeft" d="M657.003 169.199c15.684-23.526 9.327-55.313-14.204-70.997-23.526-15.689-55.313-9.331-70.997 14.199l-204.8 307.2c-5.386 7.98-8.598 17.815-8.598 28.399s3.212 20.418 8.714 28.581l-0.116-0.182 204.8 307.2c15.684 23.531 47.471 29.888 70.997 14.204 23.531-15.689 29.888-47.475 14.204-71.002l-185.869-278.801 185.869-278.801z" />
<glyph unicode="&#xe947;" glyph-name="arrowRight" d="M366.997 726.801c-15.684 23.526-9.327 55.313 14.204 70.997 23.526 15.689 55.313 9.331 70.997-14.199l204.8-307.2c5.386-7.98 8.598-17.815 8.598-28.399s-3.212-20.418-8.714-28.581l0.116 0.182-204.8-307.2c-15.684-23.531-47.471-29.888-70.997-14.204-23.531 15.689-29.888 47.475-14.204 71.002l185.869 278.801-185.869 278.801z" />
<glyph unicode="&#xe948;" glyph-name="arrowTop" d="M233.199 302.997c-23.526-15.684-55.313-9.327-70.997 14.204-15.689 23.526-9.331 55.313 14.199 70.997l307.2 204.8c7.98 5.386 17.815 8.598 28.399 8.598s20.418-3.212 28.581-8.714l-0.182 0.116 307.2-204.8c23.531-15.684 29.888-47.471 14.204-70.997-15.689-23.531-47.475-29.888-71.002-14.204l-278.801 185.869-278.801-185.869z" />
<glyph unicode="&#xe949;" glyph-name="attention" d="M614.4 857.6v-335.398c0-29.513-1.809-58.786-5.427-87.821-4.635-36.998-9.659-67.209-15.716-97.046l1.401 8.265h-165.316c-4.656 21.571-9.68 51.783-13.633 82.331l-0.682 6.45c-3.455 26.296-5.427 56.706-5.427 87.576 0 0.086 0 0.172 0 0.259v-0.013 335.398h204.8zM409.6 140.8c0 14.37 2.62 27.746 7.851 40.124 5.239 12.373 12.416 23.151 21.53 32.333 9.118 9.186 19.883 16.469 32.294 21.858s25.984 8.085 40.725 8.085c14.353 0 27.733-2.697 40.149-8.085 12.407-5.389 23.27-12.672 32.576-21.858 9.31-9.182 16.585-19.959 21.82-32.333 5.235-12.378 7.855-25.754 7.855-40.124s-2.62-27.844-7.851-40.422c-5.239-12.574-12.514-23.454-21.824-32.636-9.306-9.182-20.169-16.367-32.58-21.555-12.412-5.193-25.792-7.787-40.145-7.787-14.741 0-28.314 2.594-40.725 7.787-12.416 5.188-23.177 12.373-32.294 21.555-9.114 9.182-16.29 20.062-21.525 32.64-5.235 12.574-7.855 26.048-7.855 40.418z" />
<glyph unicode="&#xe94a;" glyph-name="bell" d="M512 13.76c-28.305 0-52.45 10.065-72.431 30.191s-29.969 43.878-29.969 71.249h204.8c0-27.371-9.988-51.123-29.969-71.249s-44.126-30.191-72.431-30.191zM828.655 243.2l27.055-26.803c9.399-9.31 14.69-21.995 14.69-35.226 0-0.001 0-0.003 0-0.004 0-11.419-9.257-20.676-20.676-20.676h-675.447c-11.419 0-20.676 9.257-20.676 20.676 0 0.001 0 0.003 0 0.004v0c0 13.227 5.291 25.916 14.69 35.226l27.055 26.803c25.782 25.547 41.745 60.966 41.745 100.113v0 165.734c0 61.7 20.023 116.51 60.075 164.429 40.047 47.919 90.615 79.1 151.71 93.538v29.538c0 17.067 5.769 31.509 17.306 43.324 11.541 11.819 26.812 17.724 45.82 17.724s34.278-5.909 45.82-17.724c11.537-11.819 17.306-26.257 17.306-43.324v-29.538c61.094-14.438 111.659-45.619 151.71-93.538 40.051-47.915 60.075-102.729 60.075-164.429v-165.734c0-37.602 15.027-73.647 41.745-100.113z" />
<glyph unicode="&#xe94b;" glyph-name="calendar" d="M119.467 34.133h806.4v486.357h-806.4v-486.357zM196.267 763.691h-76.8v-166.357h806.4v166.357h-76.843v-38.357c0-21.205-17.152-38.4-38.357-38.4h-185.6c-21.208 0-38.4 17.192-38.4 38.4v38.357h-128v-38.357c0-21.208-17.192-38.4-38.4-38.4h-185.6c-21.248 0-38.4 17.195-38.4 38.4v38.357zM273.024 763.733h108.8v76.757h-108.8v-76.757zM663.467 763.733h108.8v76.757h-108.8v-76.757zM964.267 840.533c21.208 0 38.4-17.192 38.4-38.4v0-806.443c0-21.208-17.192-38.4-38.4-38.4v0h-883.2c-21.208 0-38.4 17.192-38.4 38.4v0 806.443c0 21.208 17.192 38.4 38.4 38.4v0h115.2v38.4c0 21.205 17.152 38.4 38.4 38.4h185.6c21.208 0 38.4-17.192 38.4-38.4v0-38.4h128v38.4c0 21.208 17.192 38.4 38.4 38.4h185.6c21.205 0 38.357-17.195 38.357-38.4v-38.4h115.243zM778.645 424.542h-512c-21.208 0-38.4-17.192-38.4-38.4v0c0-21.205 17.195-38.443 38.4-38.443h512c21.205 0 38.4 17.237 38.4 38.443 0 21.208-17.192 38.4-38.4 38.4v0zM778.645 219.75h-512c-21.208 0-38.4-17.192-38.4-38.4v0c0-21.205 17.195-38.443 38.4-38.443h512c21.205 0 38.4 17.237 38.4 38.443 0 21.208-17.192 38.4-38.4 38.4v0z" />
<glyph unicode="&#xe94c;" glyph-name="checkboxEmpty" d="M393.813 857.6c-109.397 0-148.352-7.509-188.373-28.928-31.782-16.959-57.153-42.33-73.649-73.164l-0.463-0.948c-21.419-40.021-28.928-78.976-28.928-188.373v-236.373c0-109.397 7.509-148.352 28.928-188.373 16.959-31.782 42.33-57.153 73.164-73.649l0.948-0.463c40.021-21.419 78.976-28.928 188.373-28.928h236.373c109.397 0 148.352 7.509 188.373 28.928 31.782 16.959 57.153 42.33 73.649 73.164l0.463 0.948c21.419 40.021 28.928 78.976 28.928 188.373v236.373c0 109.397-7.509 148.352-28.928 188.373-16.959 31.782-42.33 57.153-73.164 73.649l-0.948 0.463c-40.021 21.419-78.976 28.928-188.373 28.928h-236.373zM393.813 960h236.373c136.96 0 186.581-14.251 236.672-41.045 49.705-26.679 89.417-66.391 115.365-114.609l0.731-1.487c26.795-50.091 41.045-99.755 41.045-236.672v-236.373c0-136.96-14.251-186.581-41.045-236.672-26.679-49.705-66.391-89.417-114.609-115.365l-1.487-0.731c-50.091-26.795-99.755-41.045-236.672-41.045h-236.373c-136.96 0-186.581 14.251-236.672 41.045-49.705 26.679-89.417 66.391-115.365 114.609l-0.731 1.487c-26.795 50.091-41.045 99.755-41.045 236.672v236.373c0 136.96 14.251 186.581 41.045 236.672 26.679 49.705 66.391 89.417 114.609 115.365l1.487 0.731c50.091 26.795 99.755 41.045 236.672 41.045z" />
<glyph unicode="&#xe94d;" d="M307.2 960h409.6c170.667 0 307.2-136.533 307.2-307.2v-409.6c0-170.667-136.533-307.2-307.2-307.2h-409.6c-170.667 0-307.2 136.533-307.2 307.2v409.6c0 170.667 136.533 307.2 307.2 307.2z" />
<glyph unicode="&#xe94e;" d="M682.667 605.867c21.333 17.067 55.467 17.067 72.533-8.533 17.067-21.333 17.067-55.467-8.533-76.8l-268.8-234.667c-21.333-17.067-46.933-17.067-68.267 0l-140.8 132.267c-21.333 21.333-21.333 55.467-4.267 76.8s51.2 25.6 72.533 4.267l106.667-98.133 238.933 204.8z" />
<glyph unicode="&#xe94f;" glyph-name="circleX" d="M178.309 168.612l279.383 279.388-279.383 279.388c-63.365-75.597-101.509-173.036-101.509-279.388s38.144-203.791 101.509-279.388zM232.612 114.309c75.597-63.365 173.036-101.509 279.388-101.509s203.791 38.144 279.388 101.509l-279.388 279.383-279.388-279.383zM791.388 781.691c-75.597 63.365-173.036 101.509-279.388 101.509s-203.791-38.144-279.388-101.509l279.388-279.383 279.388 279.383zM845.691 727.388l-279.383-279.388 279.383-279.388c63.365 75.597 101.509 173.036 101.509 279.388s-38.144 203.791-101.509 279.388zM512-64c-282.767 0-512 229.233-512 512s229.233 512 512 512 512-229.233 512-512-229.233-512-512-512z" />
<glyph unicode="&#xe950;" glyph-name="close" d="M801.638 810.035c9.323 9.644 22.376 15.631 36.828 15.631 28.277 0 51.2-22.923 51.2-51.2 0-14.451-5.987-27.504-15.616-36.814l-651.688-651.688c-9.198-8.892-21.744-14.372-35.569-14.372-28.277 0-51.2 22.923-51.2 51.2 0 13.826 5.48 26.371 14.386 35.584l651.66 651.66zM874.035 158.362c9.644-9.323 15.631-22.376 15.631-36.828 0-28.277-22.923-51.2-51.2-51.2-14.451 0-27.504 5.987-36.814 15.616l-651.688 651.688c-8.581 9.133-13.852 21.462-13.852 35.023 0 28.277 22.923 51.2 51.2 51.2 13.573 0 25.912-5.282 35.075-13.902l-0.026 0.025 651.674-651.674z" />
<glyph unicode="&#xe951;" glyph-name="dot" d="M1024 448c0-282.77-229.23-512-512-512s-512 229.23-512 512c0 282.77 229.23 512 512 512s512-229.23 512-512z" />
<glyph unicode="&#xe952;" glyph-name="dotHalf" d="M1024 448c0-282.77-229.23-512-512-512s-512 229.23-512 512c0 282.77 229.23 512 512 512s512-229.23 512-512zM512-64v1024c-282.778 0-512-229.222-512-512s229.222-512 512-512z" />
<glyph unicode="&#xe953;" glyph-name="dots" d="M768 448c0-70.692 57.308-128 128-128s128 57.308 128 128-57.308 128-128 128-128-57.308-128-128zM0 448c0-70.692 57.308-128 128-128s128 57.308 128 128-57.308 128-128 128-128-57.308-128-128zM384 448c0-70.692 57.308-128 128-128s128 57.308 128 128-57.308 128-128 128-128-57.308-128-128z" />
<glyph unicode="&#xe954;" glyph-name="exportFile" d="M768 396.8c0 28.277 22.923 51.2 51.2 51.2s51.2-22.923 51.2-51.2v0-296.96c0-62.209-50.431-112.64-112.64-112.64v0h-593.92c-62.209 0-112.64 50.431-112.64 112.64v0 593.92c0 62.209 50.431 112.64 112.64 112.64v0h296.96c28.277 0 51.2-22.923 51.2-51.2s-22.923-51.2-51.2-51.2v0h-296.96c-5.655 0-10.24-4.585-10.24-10.24v-593.92c0-5.632 4.608-10.24 10.24-10.24h593.92c5.655 0 10.24 4.585 10.24 10.24v0 296.96zM856.576 865.024c9.271 9.271 22.078 15.004 36.224 15.004 28.293 0 51.228-22.936 51.228-51.228 0-14.146-5.734-26.953-15.004-36.224v0l-432.026-431.974c-9.323-9.644-22.376-15.631-36.828-15.631-28.277 0-51.2 22.923-51.2 51.2 0 14.451 5.987 27.504 15.616 36.814l431.988 432.040zM870.4 806.4h-204.8c-28.277 0-51.2 22.923-51.2 51.2s22.923 51.2 51.2 51.2v0h256c28.277 0 51.2-22.923 51.2-51.2v0-256c0-28.277-22.923-51.2-51.2-51.2s-51.2 22.923-51.2 51.2v0 204.8z" />
<glyph unicode="&#xe955;" glyph-name="favorite" d="M0 602.466c0 169.182 128.542 306.334 287.104 306.334 91.106 0 172.301-45.278 224.896-115.895 52.595 70.613 133.79 115.895 224.896 115.895 158.562 0 287.104-137.152 287.104-306.334 0-88.563-35.226-168.35-91.537-224.282l-327.782-350.541c-48.815-52.207-129.839-54.123-180.971-4.284-1.415 1.382-2.775 2.769-4.102 4.187l-0.066 0.072-327.945 350.507c-56.35 55.94-91.597 135.748-91.597 224.346z" />
<glyph unicode="&#xe956;" glyph-name="filter_2" d="M563.443 371.567c11.175 7.632 20.407 17.244 27.385 28.409l0.233 0.4 269.227 355.042c6.605 10.667 10.112 23.053 10.112 35.695 0 36.719-28.949 66.487-64.661 66.487h-587.469c-12.921-0.012-24.934-3.89-34.947-10.54l0.234 0.146c-30.131-19.712-39.010-60.809-19.84-91.789l269.227-355.042c7.236-11.691 16.7-21.436 27.618-28.809v-233.438c0-55.083 43.426-99.729 96.994-99.729h5.888v333.167z" />
<glyph unicode="&#xe957;" glyph-name="goods" d="M91.733 868.267v-840.533h840.533v840.533h-840.533zM70.4 910.933h883.2c11.782 0 21.333-9.551 21.333-21.333v0-883.2c0-11.782-9.551-21.333-21.333-21.333v0h-883.2c-11.782 0-21.333 9.551-21.333 21.333v0 883.2c0 11.782 9.551 21.333 21.333 21.333v0zM185.6 119.467c-11.782 0-21.333 9.551-21.333 21.333s9.551 21.333 21.333 21.333v0h652.8c11.782 0 21.333-9.551 21.333-21.333s-9.551-21.333-21.333-21.333v0h-652.8zM379.733 236.8c0-11.782-9.551-21.333-21.333-21.333s-21.333 9.551-21.333 21.333v0 499.2c0 11.782 9.551 21.333 21.333 21.333s21.333-9.551 21.333-21.333v0-499.2zM271.087 621.713c-3.861-3.861-9.195-6.249-15.087-6.249-11.784 0-21.336 9.553-21.336 21.336 0 5.892 2.388 11.226 6.249 15.087l99.2 99.2c3.861 3.862 9.195 6.25 15.087 6.25s11.226-2.389 15.087-6.25l99.2-99.2c3.861-3.861 6.249-9.195 6.249-15.087 0-11.784-9.553-21.336-21.336-21.336-5.892 0-11.226 2.388-15.087 6.249l-84.113 84.122-84.113-84.122zM686.933 236.8c0-11.782-9.551-21.333-21.333-21.333s-21.333 9.551-21.333 21.333v0 499.2c0 11.782 9.551 21.333 21.333 21.333s21.333-9.551 21.333-21.333v0-499.2zM584.687 621.713c-3.861-3.861-9.195-6.249-15.087-6.249-11.784 0-21.336 9.553-21.336 21.336 0 5.892 2.388 11.226 6.249 15.087l99.2 99.2c3.861 3.862 9.195 6.25 15.087 6.25s11.226-2.389 15.087-6.25l99.2-99.2c3.861-3.861 6.249-9.195 6.249-15.087 0-11.784-9.553-21.336-21.336-21.336-5.892 0-11.226 2.388-15.087 6.249l-84.113 84.122-84.113-84.117z" />
<glyph unicode="&#xe958;" glyph-name="info" d="M565.35 591.667v-477.85h-142.848v477.85h142.848zM581.939 722.534c0-11.366-2.304-22.042-6.912-32.026-4.769-10.242-11.123-18.955-18.85-26.225l-0.043-0.040c-7.987-7.526-17.28-13.517-27.878-17.971s-21.888-6.682-33.869-6.682c-11.674 0-22.579 2.227-32.717 6.682-10.415 4.603-19.336 10.646-26.987 18l0.030-0.029c-7.621 7.313-13.829 16.030-18.221 25.743l-0.211 0.522c-4.454 9.984-6.682 20.659-6.682 32.026 0 11.674 2.227 22.579 6.682 32.717 4.602 10.397 10.812 19.264 18.417 26.712l0.015 0.014c7.56 7.435 16.5 13.495 26.396 17.756l0.561 0.215c10.138 4.301 21.043 6.451 32.717 6.451 11.981 0 23.27-2.15 33.869-6.451s19.891-10.291 27.878-17.971c7.987-7.68 14.285-16.589 18.893-26.726s6.912-21.043 6.912-32.717z" />
<glyph unicode="&#xe959;" glyph-name="infoCircle" d="M512 38.4c226.219 0 409.6 183.381 409.6 409.6s-183.381 409.6-409.6 409.6-409.6-183.381-409.6-409.6 183.381-409.6 409.6-409.6zM512-64c-282.769 0-512 229.231-512 512s229.231 512 512 512 512-229.231 512-512-229.231-512-512-512zM567.296 555.127v-371.661h-111.104v371.661h111.104zM580.198 656.913c0-8.841-1.792-17.143-5.376-24.909-3.709-7.966-8.651-14.743-14.661-20.397l-0.034-0.031c-6.212-5.854-13.44-10.513-21.683-13.978s-17.024-5.197-26.342-5.197c-9.079 0-17.562 1.732-25.446 5.197-8.101 3.58-15.039 8.28-20.99 14l0.024-0.023c-5.927 5.688-10.756 12.468-14.172 20.023l-0.164 0.406c-3.465 7.765-5.197 16.068-5.197 24.909 0 9.079 1.732 17.562 5.197 25.446 3.579 8.087 8.41 14.983 14.325 20.776l0.011 0.011c6.093 5.973 13.082 10.633 20.966 13.978s16.367 5.018 25.446 5.018c9.318 0 18.099-1.673 26.342-5.018s15.471-8.004 21.683-13.978 11.11-12.902 14.694-20.787c3.584-7.885 5.376-16.367 5.376-25.446z" />
<glyph unicode="&#xe95a;" glyph-name="infoFilled" d="M512-64c-282.769 0-512 229.231-512 512s229.231 512 512 512 512-229.231 512-512-229.231-512-512-512zM567.296 555.127h-111.104v-371.661h111.104v371.661zM580.198 656.913c0 9.079-1.792 17.562-5.376 25.446-3.709 8.092-8.652 14.985-14.672 20.766l-0.023 0.022c-6.079 5.836-13.276 10.561-21.232 13.814l-0.451 0.163c-8.243 3.345-17.024 5.018-26.342 5.018-9.079 0-17.562-1.673-25.446-5.018-8.133-3.482-15.086-8.195-20.976-13.987l0.009 0.009c-5.926-5.804-10.757-12.7-14.169-20.367l-0.167-0.42c-3.465-7.885-5.197-16.367-5.197-25.446 0-8.841 1.732-17.143 5.197-24.909s8.243-14.575 14.336-20.429 13.082-10.513 20.966-13.978c7.885-3.465 16.367-5.197 25.446-5.197 9.318 0 18.099 1.732 26.342 5.197s15.471 8.124 21.683 13.978c6.043 5.686 10.985 12.463 14.525 20.027l0.169 0.402c3.584 7.765 5.376 16.068 5.376 24.909z" />
<glyph unicode="&#xe95b;" glyph-name="infoM" d="M658.286 426.057v-468.114c0-12.119-9.824-21.943-21.943-21.943v0h-124.343c-80.791 0-146.286 65.494-146.286 146.286v0 468.114c0 12.119 9.824 21.943 21.943 21.943h124.343c80.791 0 146.286-65.494 146.286-146.286v0zM658.286 812.91c0-19.968-3.877-38.693-11.703-56.174-8.064-17.927-18.874-33.21-32.075-46.047l-0.034-0.033c-13.331-12.916-29.008-23.507-46.315-31.059l-1.009-0.392c-16.655-7.367-36.078-11.656-56.503-11.656s-39.849 4.289-57.419 12.015l0.916-0.359c-17.722 8.083-32.876 18.649-45.798 31.462l0.011-0.011c-12.973 12.875-23.529 28.165-30.94 45.142l-0.365 0.938c-7.168 16.283-11.34 35.267-11.34 55.226 0 0.333 0.001 0.666 0.003 0.999v-0.051c0 20.48 3.803 39.57 11.337 57.344 15.12 35.173 42.302 62.758 76.224 78.030l0.942 0.379c16.733 7.172 36.206 11.342 56.653 11.342 40.484 0 77.149-16.347 103.756-42.8l-0.007 0.007c13.458-13.531 24.137-29.111 32.037-46.958 7.826-17.774 11.703-36.864 11.703-57.344z" />
<glyph unicode="&#xe95d;" glyph-name="mediaAudio" d="M537.741 698.266l145.856 102.596c23.125 16.269 55.066 10.709 71.334-12.416 5.831-8.202 9.323-18.422 9.323-29.457 0-0.001 0-0.003 0-0.004v0-621.969c0-28.279-22.925-51.2-51.2-51.2-11.035 0-21.255 3.491-29.615 9.429l0.158-0.107-145.856 102.596c-8.202 5.831-18.422 9.323-29.457 9.323h-252.284c-28.275 0-51.2 22.925-51.2 51.2v379.486c0 28.275 22.925 51.2 51.2 51.2z" />
<glyph unicode="&#xe95e;" glyph-name="mediaFastForward" d="M482.133 395.392l-268.275-249.707c-6.381-5.952-14.973-9.605-24.418-9.605-19.794 0-35.84 16.046-35.84 35.84 0 0 0 0.001 0 0.001v0 552.158c0 0 0 0.001 0 0.001 0 19.794 16.046 35.84 35.84 35.84 9.445 0 18.037-3.654 24.439-9.625l-0.021 0.020 268.275-249.707v223.471c0 0 0 0.001 0 0.001 0 19.794 16.046 35.84 35.84 35.84 9.445 0 18.037-3.654 24.439-9.625l-0.021 0.020 296.614-276.079c7.036-6.562 11.423-15.887 11.423-26.236s-4.387-19.674-11.402-26.216l-0.021-0.020-296.614-276.079c-6.381-5.952-14.973-9.605-24.418-9.605-19.794 0-35.84 16.046-35.84 35.84 0 0 0 0.001 0 0.001v0 223.467z" />
<glyph unicode="&#xe95f;" glyph-name="mediaPause" d="M270.434 755.2h92.147c22.827 0 31.104-2.377 39.445-6.839s14.891-11.008 19.354-19.354c4.463-8.341 6.839-16.619 6.839-39.441v-483.132c0-22.822-2.377-31.1-6.839-39.441-4.447-8.286-11.067-14.907-19.106-19.232l-0.248-0.122c-8.346-4.463-16.623-6.839-39.445-6.839h-92.147c-22.822 0-31.1 2.377-39.441 6.839-8.286 4.447-14.907 11.067-19.232 19.106l-0.122 0.248c-4.463 8.341-6.839 16.619-6.839 39.441v483.132c0 22.822 2.377 31.1 6.839 39.441 4.446 8.287 11.067 14.907 19.106 19.232l0.248 0.122c8.341 4.463 16.619 6.839 39.441 6.839zM661.419 755.2h92.147c22.822 0 31.1-2.377 39.441-6.839 8.287-4.446 14.907-11.067 19.232-19.106l0.122-0.248c4.463-8.341 6.839-16.619 6.839-39.441v-483.132c0-22.822-2.377-31.1-6.839-39.441-4.447-8.286-11.067-14.907-19.106-19.232l-0.248-0.122c-8.341-4.463-16.619-6.839-39.441-6.839h-92.147c-22.827 0-31.104 2.377-39.445 6.839-8.286 4.447-14.907 11.067-19.232 19.106l-0.122 0.248c-4.463 8.341-6.839 16.619-6.839 39.441v483.132c0 22.822 2.377 31.1 6.839 39.441 4.446 8.287 11.067 14.907 19.106 19.232l0.248 0.122c8.346 4.463 16.623 6.839 39.445 6.839z" />
<glyph unicode="&#xe960;" glyph-name="mediaPlay" d="M795.827 404.198l-513.323-310.618c-24.192-14.639-55.671-6.895-70.31 17.297-4.644 7.557-7.394 16.709-7.394 26.504 0 0.002 0 0.003 0 0.005v0 621.235c0 28.275 22.925 51.2 51.2 51.2 0.001 0 0.003 0 0.004 0 9.795 0 18.948-2.751 26.728-7.521l-0.223 0.127 513.323-310.618c24.192-14.643 31.936-46.123 17.297-70.315-4.359-7.121-10.179-12.94-17.078-17.17l-0.223-0.127z" />
<glyph unicode="&#xe961;" glyph-name="mediaRewind" d="M541.867 500.608l242.449 225.668c9.116 8.502 21.39 13.722 34.883 13.722 0.001 0 0.001 0 0.002 0v0c28.275 0 51.2-22.921 51.2-51.2v-481.596c0 0 0-0.001 0-0.001 0-13.493-5.219-25.767-13.75-34.913l0.028 0.030c-19.264-20.698-51.665-21.858-72.363-2.594l-242.449 225.664v-188.186c0 0 0-0.001 0-0.001 0-13.493-5.219-25.767-13.75-34.913l0.028 0.030c-19.264-20.698-51.665-21.858-72.363-2.594l-258.705 240.798c-0.905 0.843-1.751 1.689-2.566 2.564l-0.028 0.030c-19.264 20.698-18.103 53.099 2.594 72.363l258.709 240.798c9.116 8.502 21.39 13.722 34.883 13.722 0.001 0 0.001 0 0.002 0v0c28.275 0 51.2-22.921 51.2-51.2v-188.186z" />
<glyph unicode="&#xe962;" glyph-name="mediaStop" d="M307.2 755.2h409.6c56.554 0 102.4-45.846 102.4-102.4v-409.6c0-56.554-45.846-102.4-102.4-102.4h-409.6c-56.554 0-102.4 45.846-102.4 102.4v409.6c0 56.554 45.846 102.4 102.4 102.4z" />
<glyph unicode="&#xe963;" glyph-name="minus" d="M819.2 499.2c28.275 0 51.2-22.925 51.2-51.2s-22.925-51.2-51.2-51.2h-614.4c-28.275 0-51.2 22.925-51.2 51.2s22.925 51.2 51.2 51.2h614.4z" />
<glyph unicode="&#xe964;" glyph-name="options" d="M768 448c0 70.694 57.306 128 128 128s128-57.306 128-128-57.306-128-128-128-128 57.306-128 128zM0 448c0 70.694 57.306 128 128 128s128-57.306 128-128-57.306-128-128-128-128 57.306-128 128zM384 448c0 70.694 57.306 128 128 128s128-57.306 128-128-57.306-128-128-128-128 57.306-128 128z" />
<glyph unicode="&#xe965;" glyph-name="placeholder" d="M584.405 448l257.050-257.045c19.994-19.998 19.994-52.416 0-72.41s-52.412-19.994-72.405 0l-257.050 257.045-257.045-257.045c-19.998-19.994-52.416-19.994-72.41 0s-19.994 52.412 0 72.405l257.045 257.050-257.045 257.045c-19.994 19.998-19.994 52.416 0 72.41s52.412 19.994 72.405 0l257.050-257.045 257.045 257.045c19.998 19.994 52.416 19.994 72.41 0s19.994-52.412 0-72.405l-257.045-257.050zM512-64c-282.769 0-512 229.231-512 512s229.231 512 512 512 512-229.231 512-512-229.231-512-512-512zM512 38.4c226.219 0 409.6 183.381 409.6 409.6s-183.381 409.6-409.6 409.6-409.6-183.381-409.6-409.6 183.381-409.6 409.6-409.6z" />
<glyph unicode="&#xe966;" glyph-name="plus" d="M563.2 396.8v-256c0-28.275-22.925-51.2-51.2-51.2s-51.2 22.925-51.2 51.2v256h-256c-28.275 0-51.2 22.925-51.2 51.2s22.925 51.2 51.2 51.2h256v256c0 28.275 22.925 51.2 51.2 51.2s51.2-22.925 51.2-51.2v-256h256c28.275 0 51.2-22.925 51.2-51.2s-22.925-51.2-51.2-51.2h-256z" />
<glyph unicode="&#xe967;" glyph-name="progressBarCheckMark" d="M508.469 960c279.658 0 508.469-228.811 508.469-508.469s-228.811-508.469-508.469-508.469-508.469 228.811-508.469 508.469 228.811 508.469 508.469 508.469zM687.040 630.802l-245.142-232.423-110.557 113.555c-19.587 20.12-51.779 20.551-71.899 0.96s-20.551-51.779-0.964-71.902l145.56-149.504c19.407-19.933 51.228-20.568 71.415-1.43l281.558 266.946c20.374 19.322 21.236 51.504 1.914 71.885-19.322 20.374-51.504 21.236-71.885 1.914z" />
<glyph unicode="&#xe968;" glyph-name="progressBarComingUp" d="M508.469 960c279.658 0 508.469-228.811 508.469-508.469s-228.811-508.469-508.469-508.469-508.469 228.811-508.469 508.469 228.811 508.469 508.469 508.469zM508.469 875.255c-233.048 0-423.724-190.676-423.724-423.724s190.676-423.724 423.724-423.724 423.724 190.676 423.724 423.724-190.676 423.724-423.724 423.724z" />
<glyph unicode="&#xe969;" glyph-name="progressBarDisabled" d="M508.469 960c279.658 0 508.469-228.811 508.469-508.469s-228.811-508.469-508.469-508.469-508.469 228.811-508.469 508.469 228.811 508.469 508.469 508.469zM508.469 875.255c-233.048 0-423.724-190.676-423.724-423.724s190.676-423.724 423.724-423.724 423.724 190.676 423.724 423.724-190.676 423.724-423.724 423.724z" />
<glyph unicode="&#xe96a;" glyph-name="progressBarIndicator" d="M512 21.333c235.639 0 426.667 191.027 426.667 426.667s-191.027 426.667-426.667 426.667-426.667-191.027-426.667-426.667 191.027-426.667 426.667-426.667zM512-64c-282.769 0-512 229.231-512 512s229.231 512 512 512 512-229.231 512-512-229.231-512-512-512zM725.333 448c0-117.821-95.513-213.333-213.333-213.333s-213.333 95.513-213.333 213.333c0 117.821 95.513 213.333 213.333 213.333s213.333-95.513 213.333-213.333z" />
<glyph unicode="&#xe96b;" glyph-name="radioButton" d="M512 38.4c226.216 0 409.6 183.384 409.6 409.6s-183.384 409.6-409.6 409.6v0c-226.216 0-409.6-183.384-409.6-409.6s183.384-409.6 409.6-409.6v0zM512-64c-282.778 0-512 229.222-512 512s229.222 512 512 512 512-229.222 512-512-229.222-512-512-512zM819.2 448c0-169.662-137.538-307.2-307.2-307.2s-307.2 137.538-307.2 307.2c0 169.662 137.538 307.2 307.2 307.2s307.2-137.538 307.2-307.2z" />
<glyph unicode="&#xe96c;" glyph-name="radioButtonActive" d="M512-64c-282.769 0-512 229.231-512 512s229.231 512 512 512 512-229.231 512-512-229.231-512-512-512zM512 234.667c117.82 0 213.333 95.514 213.333 213.333s-95.514 213.333-213.333 213.333-213.333-95.514-213.333-213.333 95.514-213.333 213.333-213.333z" />
<glyph unicode="&#xe96d;" glyph-name="radioButtonEmpty" d="M512 38.4c226.219 0 409.6 183.381 409.6 409.6s-183.381 409.6-409.6 409.6-409.6-183.381-409.6-409.6 183.381-409.6 409.6-409.6zM512-64c-282.769 0-512 229.231-512 512s229.231 512 512 512 512-229.231 512-512-229.231-512-512-512z" />
<glyph unicode="&#xe96e;" glyph-name="radioButtonFilled" d="M512-64c-282.769 0-512 229.231-512 512s229.231 512 512 512 512-229.231 512-512-229.231-512-512-512zM512 234.667c117.82 0 213.333 95.514 213.333 213.333s-95.514 213.333-213.333 213.333-213.333-95.514-213.333-213.333 95.514-213.333 213.333-213.333z" />
</font>
</defs>
</svg>
